<svg width="1020" height="358" viewBox="0 0 1020 358" fill="none" xmlns="http://www.w3.org/2000/svg">
<path d="M841.815 70.8397C841.438 78.8565 845.883 86.3244 853.109 89.8166C845.092 89.4399 837.624 93.8843 834.132 101.11C834.509 93.0935 830.064 85.6256 822.838 82.1334C830.855 82.5101 838.323 78.0657 841.815 70.8397Z" fill="url(#paint0_linear_1990_43050)"/>
<path d="M949.807 335.292L950.138 336.915C950.86 340.448 953.621 343.209 957.154 343.931L958.777 344.263L957.154 344.594C953.621 345.316 950.86 348.077 950.138 351.61L949.807 353.233L949.475 351.61C948.753 348.077 945.992 345.316 942.459 344.594L940.836 344.263L942.459 343.931C945.992 343.209 948.753 340.448 949.475 336.915L949.807 335.292Z" fill="url(#paint1_linear_1990_43050)"/>
<path d="M562.817 23.2586C564.518 25.4401 567.357 26.3958 570.031 25.6872C567.85 27.3883 566.894 30.2271 567.603 32.9012C565.902 30.7197 563.063 29.764 560.389 30.4726C562.57 28.7715 563.526 25.9327 562.817 23.2586Z" fill="url(#paint2_linear_1990_43050)"/>
<path d="M191.971 97L192.302 98.6234C193.024 102.156 195.785 104.917 199.318 105.639L200.941 105.971L199.318 106.302C195.785 107.024 193.024 109.785 192.302 113.318L191.971 114.941L191.639 113.318C190.917 109.785 188.156 107.024 184.623 106.302L183 105.971L184.623 105.639C188.156 104.917 190.917 102.156 191.639 98.6234L191.971 97Z" fill="url(#paint3_linear_1990_43050)"/>
<path d="M5.38235 283C5.93632 285.71 8.0544 287.828 10.7647 288.382C8.0544 288.936 5.93632 291.054 5.38235 293.765C4.82839 291.054 2.71031 288.936 0 288.382C2.71031 287.828 4.82839 285.71 5.38235 283Z" fill="url(#paint4_linear_1990_43050)"/>
<defs>
<linearGradient id="paint0_linear_1990_43050" x1="787.991" y1="86.1653" x2="851.751" y2="97.1245" gradientUnits="userSpaceOnUse">
<stop stop-color="#FC540C"/>
<stop offset="0.355703" stop-color="#FFD76F" stop-opacity="0.72"/>
<stop offset="0.859375" stop-color="#38D4E9"/>
</linearGradient>
<linearGradient id="paint1_linear_1990_43050" x1="933.915" y1="349.252" x2="961.676" y2="339.271" gradientUnits="userSpaceOnUse">
<stop stop-color="#FC540C"/>
<stop offset="0.258026" stop-color="#FFD76F" stop-opacity="0.72"/>
<stop offset="0.859375" stop-color="#38D4E9"/>
</linearGradient>
<linearGradient id="paint2_linear_1990_43050" x1="558" y1="35" x2="598.186" y2="-4.76429" gradientUnits="userSpaceOnUse">
<stop offset="0.190338" stop-color="#FC540C"/>
<stop offset="0.694542" stop-color="#FFD76F" stop-opacity="0.72"/>
<stop offset="0.859375" stop-color="#38D4E9"/>
</linearGradient>
<linearGradient id="paint3_linear_1990_43050" x1="164.166" y1="113.141" x2="201.218" y2="110.232" gradientUnits="userSpaceOnUse">
<stop stop-color="#FC540C"/>
<stop offset="0.355703" stop-color="#FFD76F" stop-opacity="0.72"/>
<stop offset="0.859375" stop-color="#38D4E9"/>
</linearGradient>
<linearGradient id="paint4_linear_1990_43050" x1="-4.15243" y1="291.376" x2="49.5216" y2="273.621" gradientUnits="userSpaceOnUse">
<stop stop-color="#FC540C"/>
<stop offset="0.258026" stop-color="#FFD76F" stop-opacity="0.72"/>
<stop offset="0.859375" stop-color="#38D4E9"/>
</linearGradient>
</defs>
</svg>
