<svg width="18" height="18" viewBox="0 0 18 18" fill="none" xmlns="http://www.w3.org/2000/svg">
<path d="M6 12V6H12V12H6ZM8 10H10V8H8V10ZM6 18V16H4C3.45 16 2.97917 15.8042 2.5875 15.4125C2.19583 15.0208 2 14.55 2 14V12H0V10H2V8H0V6H2V4C2 3.45 2.19583 2.97917 2.5875 2.5875C2.97917 2.19583 3.45 2 4 2H6V0H8V2H10V0H12V2H14C14.55 2 15.0208 2.19583 15.4125 2.5875C15.8042 2.97917 16 3.45 16 4V6H18V8H16V10H18V12H16V14C16 14.55 15.8042 15.0208 15.4125 15.4125C15.0208 15.8042 14.55 16 14 16H12V18H10V16H8V18H6ZM14 14V4H4V14H14Z" fill="#E3E3E3"/>
</svg>
