<svg width="18" height="18" viewBox="0 0 18 18" fill="none" xmlns="http://www.w3.org/2000/svg">
<path d="M9 18C6.48333 18 4.35417 17.6125 2.6125 16.8375C0.870833 16.0625 0 15.1167 0 14V4C0 2.9 0.879167 1.95833 2.6375 1.175C4.39583 0.391667 6.51667 0 9 0C11.4833 0 13.6042 0.391667 15.3625 1.175C17.1208 1.95833 18 2.9 18 4V14C18 15.1167 17.1292 16.0625 15.3875 16.8375C13.6458 17.6125 11.5167 18 9 18ZM9 6.025C10.4833 6.025 11.975 5.8125 13.475 5.3875C14.975 4.9625 15.8167 4.50833 16 4.025C15.8167 3.54167 14.9792 3.08333 13.4875 2.65C11.9958 2.21667 10.5 2 9 2C7.48333 2 5.99583 2.2125 4.5375 2.6375C3.07917 3.0625 2.23333 3.525 2 4.025C2.23333 4.525 3.07917 4.98333 4.5375 5.4C5.99583 5.81667 7.48333 6.025 9 6.025ZM9 11C9.7 11 10.375 10.9667 11.025 10.9C11.675 10.8333 12.2958 10.7375 12.8875 10.6125C13.4792 10.4875 14.0375 10.3333 14.5625 10.15C15.0875 9.96667 15.5667 9.75833 16 9.525V6.525C15.5667 6.75833 15.0875 6.96667 14.5625 7.15C14.0375 7.33333 13.4792 7.4875 12.8875 7.6125C12.2958 7.7375 11.675 7.83333 11.025 7.9C10.375 7.96667 9.7 8 9 8C8.3 8 7.61667 7.96667 6.95 7.9C6.28333 7.83333 5.65417 7.7375 5.0625 7.6125C4.47083 7.4875 3.91667 7.33333 3.4 7.15C2.88333 6.96667 2.41667 6.75833 2 6.525V9.525C2.41667 9.75833 2.88333 9.96667 3.4 10.15C3.91667 10.3333 4.47083 10.4875 5.0625 10.6125C5.65417 10.7375 6.28333 10.8333 6.95 10.9C7.61667 10.9667 8.3 11 9 11ZM9 16C9.76667 16 10.5458 15.9417 11.3375 15.825C12.1292 15.7083 12.8583 15.5542 13.525 15.3625C14.1917 15.1708 14.75 14.9542 15.2 14.7125C15.65 14.4708 15.9167 14.225 16 13.975V11.525C15.5667 11.7583 15.0875 11.9667 14.5625 12.15C14.0375 12.3333 13.4792 12.4875 12.8875 12.6125C12.2958 12.7375 11.675 12.8333 11.025 12.9C10.375 12.9667 9.7 13 9 13C8.3 13 7.61667 12.9667 6.95 12.9C6.28333 12.8333 5.65417 12.7375 5.0625 12.6125C4.47083 12.4875 3.91667 12.3333 3.4 12.15C2.88333 11.9667 2.41667 11.7583 2 11.525V14C2.08333 14.25 2.34583 14.4917 2.7875 14.725C3.22917 14.9583 3.78333 15.1708 4.45 15.3625C5.11667 15.5542 5.85 15.7083 6.65 15.825C7.45 15.9417 8.23333 16 9 16Z" fill="#E3E3E3"/>
</svg>
