<svg width="70" height="19" viewBox="0 0 70 19" fill="none" xmlns="http://www.w3.org/2000/svg">
<g clip-path="url(#clip0_1249_3252)">
<path d="M13.4819 8.20377H7.59898C7.44739 8.20377 7.32495 8.32019 7.32495 8.46432V11.1992C7.32495 11.3433 7.44739 11.4615 7.59898 11.4615H9.89422V14.8598C9.89422 14.8598 9.3792 15.0261 7.95463 15.0261C6.27353 15.0261 3.92582 14.4421 3.92582 9.53423C3.92582 4.62632 6.3707 3.97957 8.66595 3.97957C10.6522 3.97957 11.5092 4.31218 12.0534 4.47294C12.2244 4.52284 12.3819 4.36022 12.3819 4.21609L13.0388 1.57365C13.0388 1.50528 13.0154 1.42398 12.9338 1.37039C12.7123 1.22071 11.3635 0.501894 7.95463 0.501894C4.02882 0.500046 0 2.0892 0 9.72456C0 17.3599 4.61186 18.4982 8.49881 18.4982C11.7172 18.4982 13.6684 17.1899 13.6684 17.1899C13.7481 17.1474 13.7578 17.0402 13.7578 16.9922V8.46617C13.7578 8.32203 13.6354 8.20562 13.4838 8.20562L13.4819 8.20377Z" fill="#D8D8D8"/>
<path d="M43.7983 1.41474C43.7983 1.26876 43.6778 1.15234 43.5263 1.15234H40.2146C40.063 1.15234 39.9405 1.27061 39.9405 1.41474V7.49974H34.7787V1.41474C34.7787 1.26876 34.6562 1.15234 34.5047 1.15234H31.193C31.0414 1.15234 30.9189 1.27061 30.9189 1.41474V17.8939C30.9189 18.0399 31.0414 18.1582 31.193 18.1582H34.5047C34.6562 18.1582 34.7787 18.0399 34.7787 17.8939V10.8444H39.9405L39.9308 17.8921C39.9308 18.0381 40.0533 18.1563 40.2049 18.1563H43.5243C43.6759 18.1563 43.7964 18.0381 43.7983 17.8921V1.41474Z" fill="#D8D8D8"/>
<path d="M19.7327 3.5767C19.7327 2.44211 18.7765 1.52557 17.5968 1.52557C16.4171 1.52557 15.4609 2.44211 15.4609 3.5767C15.4609 4.71128 16.4171 5.62782 17.5968 5.62782C18.7765 5.62782 19.7327 4.70944 19.7327 3.5767Z" fill="#D8D8D8"/>
<path d="M19.4955 14.4181V6.81043C19.4955 6.6663 19.373 6.54803 19.2214 6.54803H15.9195C15.7679 6.54803 15.6318 6.69586 15.6318 6.84184V17.7405C15.6318 18.0602 15.8417 18.1563 16.1138 18.1563H19.0893C19.4158 18.1563 19.4955 18.0048 19.4955 17.735V14.4181Z" fill="#D8D8D8"/>
<path d="M56.384 6.57393H53.0976C52.946 6.57393 52.8236 6.69219 52.8236 6.83817V14.9189C52.8236 14.9189 51.9879 15.4991 50.8043 15.4991C49.6207 15.4991 49.304 14.9872 49.304 13.8841V6.83633C49.304 6.69035 49.1815 6.57208 49.0299 6.57208H45.6949C45.5453 6.57208 45.4209 6.69035 45.4209 6.83633V14.4162C45.4209 17.6925 47.341 18.4945 49.9842 18.4945C52.1511 18.4945 53.9003 17.3562 53.9003 17.3562C53.9003 17.3562 53.9838 17.9567 54.0208 18.027C54.0577 18.0972 54.1568 18.1692 54.2618 18.1692L56.384 18.16C56.5337 18.16 56.6581 18.0417 56.6581 17.8976V6.83633C56.6581 6.69035 56.5337 6.57208 56.3821 6.57208L56.384 6.57393Z" fill="#D8D8D8"/>
<path d="M65.3685 6.20254C63.5009 6.20254 62.2318 6.99528 62.2318 6.99528V1.41474C62.2318 1.26876 62.1093 1.15234 61.9577 1.15234H58.6363C58.4847 1.15234 58.3623 1.27061 58.3623 1.41474V17.894C58.3623 18.0399 58.4847 18.1582 58.6363 18.1582H60.9413C61.0443 18.1582 61.124 18.1065 61.1823 18.0178C61.2386 17.9291 61.3222 17.2583 61.3222 17.2583C61.3222 17.2583 62.6807 18.4816 65.2519 18.4816C68.2701 18.4816 70.0018 17.0255 70.0018 11.9457C70.0018 6.86593 67.2362 6.20254 65.3685 6.20254ZM64.0722 15.4862C62.9314 15.4529 62.1599 14.9614 62.1599 14.9614V9.74304C62.1599 9.74304 62.9217 9.29771 63.8584 9.21825C65.042 9.11662 66.1828 9.45662 66.1828 12.1416C66.1828 14.9725 65.6678 15.5305 64.0742 15.4862H64.0722Z" fill="#D8D8D8"/>
<path d="M29.0145 6.54617H26.5307C26.5307 6.54617 26.5268 3.42698 26.5268 3.42514C26.5268 3.30687 26.4627 3.24774 26.3189 3.24774H22.9334C22.8012 3.24774 22.7312 3.30318 22.7312 3.42329V6.6478C22.7312 6.6478 21.0346 7.0377 20.9199 7.06911C20.8052 7.10053 20.7217 7.20031 20.7217 7.32042V9.34753C20.7217 9.49351 20.8441 9.60992 20.9957 9.60992H22.7312V14.4846C22.7312 18.1064 25.4035 18.4612 27.2051 18.4612C28.0291 18.4612 29.0145 18.2099 29.1777 18.1526C29.2768 18.1175 29.3332 18.0214 29.3332 17.916V15.6875C29.3351 15.5415 29.2069 15.4251 29.0611 15.4251C28.9154 15.4251 28.5461 15.4806 28.1652 15.4806C26.9447 15.4806 26.5307 14.941 26.5307 14.2425C26.5307 13.544 26.5307 9.60992 26.5307 9.60992H29.0145C29.1661 9.60992 29.2885 9.49166 29.2885 9.34753V6.80857C29.2885 6.66259 29.1661 6.54617 29.0145 6.54617Z" fill="#D8D8D8"/>
</g>
<defs>
<clipPath id="clip0_1249_3252">
<rect width="70" height="18" fill="white" transform="translate(0 0.5)"/>
</clipPath>
</defs>
</svg>
