<svg width="126" height="27" viewBox="0 0 126 27" fill="none" xmlns="http://www.w3.org/2000/svg">
<g clip-path="url(#clip0_1313_1007)">
<path d="M92.3217 25.7921C91.1467 25.5592 90.0967 24.964 89.2467 24.0324L88.5217 23.2561L87.4467 24.0324C86.5217 24.7052 86.0467 24.8605 84.4967 24.964C82.8717 25.0675 82.4967 24.9899 81.5967 24.4723C79.1467 23.049 78.9217 19.1156 81.2217 17.7182C82.0467 17.2265 84.5967 16.7348 86.3967 16.7348C87.2967 16.7348 87.5717 16.6313 87.5717 16.3207C87.5717 14.8716 85.8967 14.3799 82.9717 14.9492C81.9967 15.1304 81.0967 15.3115 80.9717 15.3115C80.6967 15.3115 80.0717 12.3614 80.3217 12.2061C80.9717 11.7921 83.7467 11.3004 85.4467 11.3004C87.8217 11.3004 89.1467 11.6368 90.2967 12.5167C91.5717 13.5259 91.8217 14.4316 91.8217 18.2875C91.8217 21.5481 91.8467 21.7034 92.4467 22.2986C92.7717 22.6609 93.2217 22.9455 93.4467 22.9455C93.6717 22.9455 94.1217 22.6609 94.4467 22.2986C95.0717 21.6775 95.0717 21.6516 95.0717 16.6054V11.5592H96.6717C98.1217 11.5592 98.2967 11.6109 98.4717 12.1544C98.7967 13.3189 99.0967 13.4483 99.7967 12.7496C101.997 10.5499 106.572 10.9122 107.947 13.3706C108.397 14.1729 108.447 14.8198 108.522 19.5296L108.597 24.757H106.347H104.072V20.4095C104.072 16.3984 104.022 16.0102 103.572 15.5703C102.847 14.8716 101.222 15.001 100.172 15.8291C99.3217 16.5019 99.3217 16.5019 99.3217 18.6239C99.3217 21.3152 99.0467 22.3245 97.9217 23.6701C96.4717 25.4298 94.4467 26.2062 92.3217 25.7921ZM86.5467 21.5222C87.2967 21.1341 87.5717 20.6683 87.5717 19.7884C87.5717 19.2967 87.4717 19.2708 86.0717 19.4002C84.3967 19.5555 83.8217 19.8919 83.8217 20.72C83.8217 21.9104 85.1467 22.2986 86.5467 21.5222Z" fill="#D8D8D8"/>
<path d="M114.922 24.6017C113.572 24.11 111.947 22.635 111.247 21.2893C110.822 20.4612 110.697 19.7884 110.697 18.1581C110.697 15.6996 111.222 14.4575 112.847 13.0342C115.772 10.4205 120.872 10.7311 123.422 13.6553C126.547 17.2523 125.022 23.1008 120.522 24.6017C118.997 25.1193 116.322 25.1193 114.922 24.6017ZM119.722 20.5906C121.322 19.0379 120.822 15.829 118.872 15.1562C117.772 14.768 116.522 15.0527 115.822 15.8032C114.447 17.3558 114.922 20.3577 116.697 21.1599C117.497 21.5222 119.072 21.2376 119.722 20.5906Z" fill="#D8D8D8"/>
<path d="M29.5718 14.5351V4.31329H31.8468H34.1468L34.0218 8.86783L33.8718 13.4224L34.4218 12.7495C35.1718 11.8179 36.5468 11.3004 38.3218 11.3004C40.1468 11.3004 41.5218 11.9473 42.3718 13.1636C42.9218 13.9917 42.9468 14.2505 43.0218 19.4002L43.0968 24.757H40.9718H38.8218V20.7459C38.8218 15.6479 38.5718 15.0786 36.4968 15.1303C35.6968 15.1562 34.0718 16.1137 34.0718 16.5536C34.0468 16.7348 34.0218 18.6239 33.9968 20.7459L33.9468 24.6276L31.7718 24.7052L29.5718 24.7828V14.5351Z" fill="#D8D8D8"/>
<path d="M45.8218 18.158V11.5591H47.4468H49.0718L49.4718 12.5684L49.8718 13.6035L50.9218 12.439C51.8718 11.4297 52.0968 11.3004 53.0968 11.3004C54.7968 11.3004 54.8718 11.4297 54.5718 13.5259C54.4468 14.5092 54.3218 15.4408 54.3218 15.5702C54.3218 15.7255 53.7968 15.829 53.1218 15.829C52.2968 15.829 51.6968 16.0102 51.1468 16.4242L50.3468 17.0194L50.2718 20.8235L50.1968 24.6276L48.0218 24.7052L45.8218 24.7828V18.158Z" fill="#D8D8D8"/>
<path d="M56.5717 18.158V11.5591H58.1467C59.7217 11.5591 59.7217 11.5591 60.1467 12.4907L60.5717 13.4224L61.2967 12.6201C62.2217 11.6109 63.0217 11.3004 64.7217 11.3004C66.2717 11.3004 67.4217 11.792 68.2467 12.8013L68.7967 13.4741L69.3467 12.7495C70.0717 11.792 71.2467 11.3004 72.7967 11.3004C75.2217 11.3004 76.6467 12.3614 77.0717 14.5092C77.2217 15.2597 77.2967 17.8216 77.2717 20.2283L77.1967 24.6276L75.0217 24.7052L72.8217 24.7828V20.28C72.8217 17.1488 72.7217 15.6996 72.5217 15.4926C72.0967 15.0527 70.4217 15.1044 69.6967 15.5961C69.0717 16.0102 69.0717 16.036 69.0717 20.3836V24.757H66.9717C65.2467 24.757 64.8467 24.6793 64.7217 24.317C64.6217 24.0841 64.5717 22.0915 64.5967 19.9178C64.5967 17.1488 64.5217 15.829 64.3217 15.5702C63.8967 15.0527 62.4467 15.0786 61.5467 15.622L60.8217 16.0619V20.4094V24.757H58.6967H56.5717V18.158Z" fill="#D8D8D8"/>
<path fill-rule="evenodd" clip-rule="evenodd" d="M7.94678 22.635C8.94678 24.6535 10.1968 25.9474 11.5968 26.465C12.0718 26.6462 13.0718 26.8014 13.8468 26.8014C14.9968 26.8273 15.6218 26.6462 17.5968 25.6369C18.8968 24.99 20.2218 24.2136 20.5468 23.9031C22.2218 22.2986 22.9218 19.7626 22.3468 17.3818C22.0968 16.3208 22.1468 15.7256 22.6968 12.8531C23.4718 8.94555 23.4468 8.42799 22.4968 8.09157C21.2468 7.62577 20.9718 8.03982 20.1968 11.7404C20.0718 12.3097 20.0218 12.2838 19.0468 11.3005C18.4968 10.757 17.8468 10.2136 17.6218 10.1359C17.3218 10.0583 16.8468 8.73853 15.9718 5.68491C15.2968 3.27825 14.5968 1.07862 14.3968 0.768079C14.0218 0.0952491 13.1468 -0.00826317 12.4468 0.535176C11.9968 0.871591 11.9718 1.02686 12.2468 2.29489C12.4218 3.04535 12.9218 4.96033 13.3968 6.53889L14.2468 9.41136L13.3968 9.69601L12.5468 9.95479L10.5968 5.89194C9.49678 3.66642 8.42178 1.67381 8.19678 1.46679C7.89678 1.20801 7.59678 1.18213 7.14678 1.36327C5.74678 1.88084 5.79678 2.19137 8.04678 6.82355C9.97178 10.8346 10.0968 11.1711 9.67178 11.4816C9.42178 11.6627 9.09678 11.818 8.94678 11.818C8.79678 11.818 7.74678 10.4206 6.62178 8.71265C5.49678 7.00469 4.37178 5.50377 4.12178 5.37438C3.57178 5.08972 2.67178 5.42613 2.34678 6.07308C2.02178 6.69416 2.22178 7.05645 4.79678 10.8864C6.82178 13.8624 6.84678 13.94 6.54678 14.7422C6.37178 15.208 6.19678 15.6221 6.17178 15.6738C6.12178 15.7256 5.17178 14.7422 4.02178 13.526C2.87178 12.3097 1.82178 11.3005 1.67178 11.3005C1.19678 11.3005 0.0717773 12.3356 0.0717773 12.7755C0.0717773 12.9825 1.62178 14.8716 3.52178 16.9678C6.14678 19.8143 7.22178 21.2118 7.94678 22.635ZM12.3218 20.3835C12.3218 21.2116 13.0968 22.3761 13.9218 22.7902C15.5218 23.6183 17.3968 22.9972 18.1968 21.3928C18.9218 19.9695 18.6718 19.8401 15.3218 19.8401C12.4468 19.8401 12.3218 19.866 12.3218 20.3835ZM11.6718 17.5628C11.0968 17.1747 10.8218 16.2689 11.0718 15.5961C11.5968 14.1469 13.8218 14.6386 13.8218 16.2172C13.8218 17.3041 12.4968 18.158 11.6718 17.5628ZM17.6718 15.0268C16.8968 15.5702 16.6968 16.3725 17.1718 17.1229C17.6468 17.8734 18.8218 18.0028 19.4218 17.3558C20.5968 16.1396 19.0718 14.0952 17.6718 15.0268Z" fill="#D8D8D8"/>
</g>
<defs>
<clipPath id="clip0_1313_1007">
<rect width="125" height="26.6544" fill="white" transform="translate(0.0717773 0.172791)"/>
</clipPath>
</defs>
</svg>
