<svg width="97" height="19" viewBox="0 0 97 19" fill="none" xmlns="http://www.w3.org/2000/svg">
<g clip-path="url(#clip0_1249_3282)">
<path d="M3.16406 2.84456L3.42061 2.69556V12.2723L11.6753 17.0584L11.4187 17.2074L3.16406 12.4168V2.84456Z" fill="#D8D8D8"/>
<path d="M3.68164 2.54207L3.93819 2.39307V11.9698L12.1929 16.7559L11.9363 16.9049L3.68164 12.1188V2.54207Z" fill="#D8D8D8"/>
<path d="M4.19531 2.24403L4.45186 2.09503V11.6673L12.7065 16.4534L12.45 16.6024L4.19531 11.8163V2.24403Z" fill="#D8D8D8"/>
<path d="M4.71289 1.94606L4.96944 1.79706V11.3738L13.2241 16.1599L12.9676 16.3089L4.71289 11.5183V1.94606Z" fill="#D8D8D8"/>
<path d="M6.25586 1.0475L6.51241 0.898499V10.4753L14.7671 15.2614L14.5105 15.4104L6.25586 10.6243V1.0475Z" fill="#D8D8D8"/>
<path d="M6.76953 0.749527L7.02608 0.600525V10.1773L15.2808 14.9634L15.0242 15.1124L6.76953 10.3263V0.749527Z" fill="#D8D8D8"/>
<path d="M7.28711 0.446976L7.54366 0.297974V9.87473L15.7983 14.6609L15.5418 14.8099L7.28711 10.0237V0.446976Z" fill="#D8D8D8"/>
<path d="M7.80469 0.149002L8.06124 0V9.57676L16.3159 14.3629L16.0594 14.5119L7.80469 9.72576V0.149002Z" fill="#D8D8D8"/>
<path d="M3.16406 2.84459L11.4187 7.63071V17.2075L13.2236 16.1599V6.58318L4.96893 1.79706L3.16406 2.84459Z" fill="#D8D8D8"/>
<path d="M6.25586 1.04753L14.5105 5.83365V15.4104L16.3154 14.3629V4.78612L8.06073 0L6.25586 1.04753Z" fill="#D8D8D8"/>
<path d="M0.0722656 4.6371L0.328818 4.4881V14.0649L8.5835 18.851L8.32694 19L0.0722656 14.2139V4.6371Z" fill="#D8D8D8"/>
<path d="M0.589844 4.33913L0.846396 4.19012V13.7669L9.10107 18.553L8.84452 18.702L0.589844 13.9159V4.33913Z" fill="#D8D8D8"/>
<path d="M1.10742 4.04109L1.36397 3.89209V13.4688L9.61865 18.255L9.3621 18.404L1.10742 13.6179V4.04109Z" fill="#D8D8D8"/>
<path d="M1.62109 3.7386L1.87765 3.5896V13.1664L10.1323 17.9525L9.87577 18.1015L1.62109 13.3154V3.7386Z" fill="#D8D8D8"/>
<path d="M0.0722656 4.63713L8.32694 9.42325V19L10.1318 17.9525V8.38024L1.87713 3.5896L0.0722656 4.63713Z" fill="#D8D8D8"/>
<path d="M85.1897 16.178V11.1436L85.1942 6.97603C85.1942 5.82916 84.7351 4.72745 83.9159 3.91471C83.0968 3.10198 81.9896 2.64594 80.8328 2.64594C79.6761 2.64594 78.5644 3.10198 77.7497 3.91471C76.9305 4.72745 76.4714 5.82916 76.4714 6.97603V16.1825H78.5914V11.5048H83.0698V16.1825L85.1897 16.178ZM78.5914 6.97151C78.5914 6.67802 78.6499 6.38905 78.7624 6.11814C78.9334 5.71177 79.217 5.3641 79.5861 5.12027C79.9551 4.87645 80.3872 4.74551 80.8328 4.74551C81.2784 4.74551 81.7105 4.87645 82.0796 5.12027C82.4486 5.3641 82.7367 5.71177 82.9032 6.11814C83.0158 6.38905 83.0743 6.67802 83.0743 6.97151V9.39166H78.5824L78.5914 6.97151ZM73.8609 16.178V6.97151C73.8609 6.40259 73.7484 5.83368 73.5278 5.3054C73.3118 4.77712 72.9877 4.30302 72.5826 3.89665C71.9705 3.29161 71.1964 2.88073 70.3457 2.71367C69.4995 2.5466 68.6218 2.63691 67.8252 2.962C67.0285 3.29161 66.3489 3.84699 65.8673 4.56039C65.3902 5.27379 65.1336 6.1091 65.1336 6.96699V16.1735H67.2536V6.97151C67.2761 6.39356 67.5191 5.84271 67.9377 5.44085C68.3563 5.039 68.9144 4.81324 69.4995 4.81324C70.0846 4.81324 70.6427 5.039 71.0613 5.44085C71.4754 5.84722 71.7185 6.39356 71.7365 6.97151V16.178H73.8609ZM57.8106 16.178V6.97151C57.8106 6.40259 57.6981 5.83368 57.4821 5.3054C57.1985 4.61909 56.7439 4.01856 56.1588 3.55801C55.5737 3.09746 54.8806 2.79494 54.1469 2.67755C53.4943 2.56918 52.6571 2.63239 51.955 2.88525C51.2528 3.1381 50.6317 3.56704 50.1456 4.13144C49.5605 3.46319 48.7863 2.98458 47.9221 2.76785C47.058 2.55112 46.1488 2.59627 45.3161 2.90782C44.4834 3.21937 43.7633 3.77023 43.2547 4.49718C42.7416 5.22412 42.4715 6.08653 42.4715 6.97151V16.178H44.5915V6.97151C44.614 6.39356 44.8615 5.84722 45.2756 5.44988C45.6942 5.05255 46.2523 4.82679 46.8329 4.82679C47.4135 4.82679 47.9716 5.04803 48.3947 5.44988C48.8133 5.85174 49.0609 6.39356 49.0789 6.97151V16.178H51.1988V6.97151C51.1943 6.45678 51.3743 5.95559 51.7029 5.55825C52.0315 5.16091 52.4906 4.88548 52.9992 4.78615C53.5078 4.68681 54.0389 4.76357 54.498 5.00739C54.9571 5.25122 55.3126 5.64404 55.5152 6.12265C55.6277 6.39356 55.6862 6.68254 55.6862 6.97603V16.1825H57.8106V16.178ZM37.7411 2.813V12.0195C37.7501 12.3175 37.6961 12.611 37.588 12.8864C37.48 13.1619 37.318 13.4147 37.1064 13.6269C36.8949 13.8391 36.6473 14.0062 36.3728 14.1236C36.0982 14.2365 35.8012 14.2997 35.5041 14.2997C35.2071 14.2997 34.91 14.241 34.6354 14.1236C34.3609 14.0062 34.1088 13.8391 33.9018 13.6269C33.6902 13.4147 33.5282 13.1619 33.4202 12.8864C33.3122 12.611 33.2582 12.313 33.2672 12.0195V2.813H31.1472V12.0195C31.1472 12.5929 31.2597 13.1573 31.4758 13.6856C31.6918 14.2139 32.0159 14.697 32.4255 15.0989C32.9341 15.6001 33.5597 15.9748 34.2439 16.1825C34.928 16.3902 35.6571 16.4264 36.3638 16.2864C37.0704 16.1464 37.7276 15.8349 38.2812 15.3833C38.8348 14.9318 39.2714 14.3494 39.5414 13.6901C39.762 13.1619 39.8745 12.5975 39.8745 12.0285V11.7983L39.87 2.81752L37.7411 2.813ZM60.4167 2.82203V16.178H62.5366V2.82203H60.4167ZM24.8099 2.813V11.8344C24.8099 12.4259 25.044 12.9948 25.4626 13.4102C25.8812 13.8256 26.4528 14.0649 27.0469 14.0649H28.5277L29.8735 16.178H27.0379C26.4618 16.178 25.8947 16.0651 25.3636 15.8439C24.8324 15.6227 24.3508 15.3021 23.9458 14.9002C23.5407 14.4984 23.2166 14.0198 23.0006 13.4915C22.78 12.9632 22.6675 12.3988 22.672 11.8299V2.813H24.8099ZM87.7957 16.178V7.16115C87.7957 6.59223 87.9083 6.02783 88.1243 5.49955C88.3403 4.97127 88.6644 4.49266 89.0695 4.09081C89.4746 3.68895 89.9562 3.36837 90.4873 3.14713C91.0184 2.9304 91.5855 2.81752 92.1616 2.81752H96.0684L94.7226 4.93064H92.1661C91.572 4.93515 91.0004 5.16994 90.5818 5.58534C90.1632 6.00525 89.9247 6.56966 89.9247 7.16115V16.178H87.7957Z" fill="#D8D8D8"/>
</g>
<defs>
<clipPath id="clip0_1249_3282">
<rect width="96" height="19" fill="white" transform="translate(0.0722656)"/>
</clipPath>
</defs>
</svg>
