<svg width="87" height="17" viewBox="0 0 87 17" fill="none" xmlns="http://www.w3.org/2000/svg">
<g clip-path="url(#clip0_1249_3263)">
<path d="M2.85044 11.2111C2.85044 12.1884 3.07161 12.9387 3.3607 13.3926C3.73972 13.9872 4.30503 14.2391 4.88136 14.2391C5.62472 14.2391 6.30475 14.0602 7.61525 12.3023C8.66513 10.8934 9.90222 8.91565 10.7346 7.67581L12.1442 5.57529C13.1234 4.11649 14.2568 2.49482 15.5563 1.3956C16.6172 0.498429 17.7616 0 18.9133 0C20.847 0 22.6888 1.08675 24.0984 3.12497C25.6411 5.35723 26.39 8.1689 26.39 11.0705C26.39 12.7954 26.0394 14.0628 25.4429 15.0641C24.8666 16.0325 23.7433 17 21.8537 17V14.2391C23.4716 14.2391 23.8754 12.7972 23.8754 11.147C23.8754 8.7955 23.3101 6.18586 22.0648 4.3212C21.181 2.99859 20.0357 2.19042 18.7757 2.19042C17.4128 2.19042 16.3162 3.18728 15.0837 4.96471C14.4284 5.90906 13.7557 7.0599 13.0004 8.35848L12.169 9.78702C10.4987 12.6592 10.0757 13.3134 9.24054 14.393C7.77677 16.2835 6.52684 17 4.88136 17C2.92937 17 1.69503 16.1803 0.93057 14.9449C0.306519 13.9382 0 12.6174 0 11.1123L2.85044 11.2111Z" fill="#D8D8D8"/>
<path d="M2.24707 3.31996C3.55391 1.36629 5.43982 6.10352e-05 7.60289 6.10352e-05C8.85558 6.10352e-05 10.1009 0.359642 11.4013 1.38943C12.8238 2.51535 14.3399 4.36933 16.2313 7.42488L16.9095 8.52142C18.5467 11.1667 19.4782 12.5275 20.0233 13.1693C20.7245 13.9935 21.2155 14.2391 21.8533 14.2391C23.4712 14.2391 23.875 12.7972 23.875 11.1471L26.3896 11.0705C26.3896 12.7955 26.039 14.0629 25.4425 15.0642C24.8661 16.0326 23.7429 17.0001 21.8533 17.0001C20.6786 17.0001 19.6379 16.7526 18.4871 15.6997C17.6024 14.8915 16.5681 13.4559 15.7724 12.1653L13.4056 8.33095C12.2181 6.40666 11.1288 4.97189 10.4983 4.32216C9.82011 3.62346 8.94827 2.77969 7.55701 2.77969C6.43096 2.77969 5.4747 3.54603 4.67444 4.71823L2.24707 3.31996Z" fill="#D8D8D8"/>
<path d="M7.55744 2.77963C6.43139 2.77963 5.47513 3.54597 4.67487 4.71817C3.54332 6.37456 2.85044 8.84178 2.85044 11.2111C2.85044 12.1884 3.07161 12.9387 3.3607 13.3926L0.93057 14.9449C0.306519 13.9382 0 12.6174 0 11.1123C0 8.37539 0.774557 5.52278 2.2475 3.3199C3.55434 1.36623 5.44025 0 7.60332 0L7.55744 2.77963Z" fill="#D8D8D8"/>
<path d="M31.9316 0.537659H35.229L40.8354 10.3745L46.4427 0.537659H49.6684V16.701H46.9786V4.31326L42.0615 12.8916H39.5377L34.6215 4.31326V16.701H31.9316V0.537659ZM58.0968 6.5642C56.1678 6.5642 55.0059 7.97227 54.7278 9.71588H61.2749C61.14 7.91975 60.0717 6.5642 58.0968 6.5642ZM52.061 10.7092C52.061 7.04038 54.5058 4.37022 58.1436 4.37022C61.7218 4.37022 63.8583 7.00656 63.8583 10.905V11.6215H54.7278C55.0518 13.5182 56.3495 14.7963 58.4419 14.7963C60.1112 14.7963 61.1547 14.3023 62.144 13.3989L63.5728 15.0962C62.2265 16.2969 60.5141 16.9894 58.3464 16.9894C54.4085 16.9894 52.061 14.2044 52.061 10.7092ZM67.1198 6.79562H64.6438V4.65949H67.1198V1.12687H69.7152V4.65949H73.4769V6.79562H69.7152V12.2098C69.7152 14.0584 70.3245 14.7153 71.8222 14.7153C72.506 14.7153 72.8978 14.6583 73.4769 14.5649V16.6779C72.7556 16.8755 72.0673 16.9662 71.3221 16.9662C68.5203 16.9662 67.1198 15.4816 67.1198 12.5098V6.79562ZM84.4051 8.873C83.8839 7.59666 82.7211 6.65677 81.0123 6.65677C78.7914 6.65677 77.3699 8.18499 77.3699 10.6745C77.3699 13.1016 78.6786 14.7037 80.9059 14.7037C82.6569 14.7037 83.9068 13.7158 84.4051 12.4866V8.873ZM87.0004 16.701H84.4529V15.0153C83.7407 16.0077 82.4449 16.9894 80.346 16.9894C76.9707 16.9894 74.7149 14.2489 74.7149 10.6745C74.7149 7.06619 77.0248 4.37022 80.4892 4.37022C82.2017 4.37022 83.5452 5.0342 84.4529 6.2064V4.65949H87.0004V16.701Z" fill="#D8D8D8"/>
</g>
<defs>
<clipPath id="clip0_1249_3263">
<rect width="87" height="17" fill="white"/>
</clipPath>
</defs>
</svg>
