<svg width="107" height="29" viewBox="0 0 107 29" fill="none" xmlns="http://www.w3.org/2000/svg">
<g clip-path="url(#clip0_1249_3270)">
<path d="M12.88 11.6329C11.4214 5.104 8.38124 3.36594 7.60573 2.1373C7.28594 1.59606 7.00266 1.03346 6.75781 0.453369C6.71684 1.03337 6.64158 1.39877 6.1557 1.8386C5.18012 2.72117 1.03676 6.14704 0.688064 13.5652C0.363189 20.4817 5.69934 24.7467 6.40435 25.1875C6.94645 25.4581 7.60668 25.1933 7.9287 24.9448C10.501 23.1536 14.0156 18.3783 12.8828 11.6329" fill="#D8D8D8"/>
<path d="M6.97983 21.5045C6.8455 23.2164 6.74928 24.2111 6.4082 25.1894C6.4082 25.1894 6.63209 26.8192 6.78929 28.5457H7.34567C7.47839 27.3299 7.68103 26.1231 7.95255 24.9313C7.2323 24.5717 7.00746 23.0067 6.97983 21.5045Z" fill="#D8D8D8"/>
<path d="M7.95128 24.9322C7.22341 24.591 7.01286 22.9931 6.98046 21.5044C7.16047 19.0488 7.21294 16.5852 7.13766 14.1239C7.09955 12.8325 7.15576 2.16241 6.82422 0.600281C7.05101 1.12936 7.31232 1.64251 7.6064 2.13631C8.38191 3.36591 11.423 5.10398 12.8806 11.6328C14.0163 18.3666 10.5208 23.1294 7.95128 24.9322Z" fill="#D8D8D8"/>
<path d="M103.889 22.5717C103.577 22.5716 103.273 22.4781 103.013 22.3029C102.754 22.1276 102.551 21.8784 102.431 21.5867C102.311 21.2949 102.278 20.9736 102.337 20.6632C102.397 20.3527 102.545 20.0669 102.764 19.8418C102.983 19.6167 103.262 19.4622 103.567 19.3978C103.873 19.3335 104.19 19.3621 104.479 19.48C104.768 19.598 105.016 19.8001 105.193 20.0609C105.369 20.3217 105.465 20.6295 105.47 20.9457C105.475 21.1589 105.438 21.3711 105.361 21.5695C105.284 21.7679 105.168 21.9484 105.021 22.1003C104.873 22.2521 104.697 22.3722 104.502 22.4532C104.308 22.5342 104.099 22.5745 103.889 22.5717ZM103.889 19.5093C103.604 19.5073 103.325 19.5912 103.088 19.7503C102.85 19.9093 102.664 20.1364 102.554 20.4027C102.443 20.669 102.413 20.9626 102.467 21.2463C102.521 21.53 102.657 21.791 102.858 21.9962C103.058 22.2015 103.314 22.3418 103.593 22.3993C103.872 22.4569 104.162 22.4291 104.425 22.3195C104.689 22.2099 104.914 22.0234 105.073 21.7837C105.232 21.5439 105.317 21.2617 105.318 20.9728C105.322 20.7807 105.287 20.5898 105.217 20.4114C105.147 20.2331 105.042 20.0708 104.909 19.9344C104.775 19.7979 104.616 19.6899 104.441 19.6169C104.266 19.5439 104.078 19.5073 103.889 19.5093ZM104.27 21.982L103.862 21.0898H103.534V21.982H103.294V19.952H103.884C104.323 19.952 104.506 20.1453 104.506 20.5194C104.506 20.8172 104.368 21.0028 104.111 21.0598L104.532 21.9791L104.27 21.982ZM103.543 20.88H103.889C104.169 20.88 104.276 20.7833 104.276 20.5243C104.276 20.2652 104.174 20.1772 103.859 20.1772H103.543V20.88Z" fill="#D8D8D8"/>
<path d="M80.3669 21.1101C80.7946 21.4571 81.6492 21.6002 82.4028 21.6002C83.3793 21.6002 84.3368 21.4165 85.2724 20.5591C86.2251 19.6804 86.8806 18.3358 86.8806 16.1888C86.8806 14.1259 86.107 12.4517 84.5197 11.4715C83.6242 10.9002 82.4638 10.6749 81.1405 10.6749C80.7594 10.6749 80.3669 10.6952 80.1439 10.7977C80.0525 10.8709 79.9878 10.973 79.96 11.0877C79.92 11.455 79.92 14.2526 79.92 15.9065C79.92 17.6021 79.92 19.9665 79.96 20.2565C79.981 20.5021 80.1029 20.9332 80.3669 21.114M76.3045 9.75659C76.6503 9.75659 77.9651 9.81749 78.5767 9.81749C79.72 9.81749 80.5098 9.75659 82.6467 9.75659C84.4378 9.75659 85.945 10.2467 87.0225 11.1853C88.3258 12.3299 89.0232 13.922 89.0232 15.8621C89.0232 18.619 87.7847 20.2121 86.5395 21.1101C85.301 22.0497 83.6899 22.5804 81.3948 22.5804C80.1735 22.5804 78.0765 22.5398 76.3264 22.5195H76.2902C76.2083 22.3561 76.4398 21.7191 76.5827 21.7027C77.059 21.6485 77.1848 21.6292 77.4039 21.5374C77.7736 21.3837 77.8603 21.1923 77.9012 20.5185C77.9622 19.2522 77.9422 17.7413 77.9422 16.0254C77.9422 14.8007 77.9622 12.4111 77.9222 11.6551C77.8603 11.0229 77.5973 10.8596 77.0647 10.7368C76.6871 10.6554 76.3055 10.5941 75.9215 10.5531C75.8815 10.4304 76.194 9.87646 76.2959 9.75659" fill="#D8D8D8"/>
<path d="M94.0666 10.7929C93.9857 10.8132 93.8837 11.0181 93.8837 11.1196C93.8628 11.8552 93.8428 13.7741 93.8428 15.1013C93.8479 15.1267 93.8603 15.1499 93.8785 15.1682C93.8966 15.1864 93.9196 15.1988 93.9447 15.2038C94.2086 15.2241 94.8603 15.2453 95.41 15.2453C96.1836 15.2453 96.6314 15.1429 96.8752 15.0201C97.5269 14.6934 97.828 13.978 97.828 13.2028C97.828 11.426 96.6066 10.7523 94.7955 10.7523C94.5506 10.7491 94.3059 10.7627 94.0628 10.7929M98.6835 18.9612C98.6835 17.1642 97.3802 16.1434 94.9984 16.1434C94.8974 16.1434 94.141 16.1231 93.9609 16.1637C93.8999 16.184 93.8389 16.2246 93.8389 16.2661C93.8389 17.5528 93.818 19.6147 93.8799 20.4315C93.9209 20.7785 94.1657 21.2686 94.4696 21.4117C94.7955 21.5954 95.5281 21.636 96.0369 21.636C97.4412 21.636 98.6835 20.8404 98.6835 18.9612ZM90.3892 9.79236C90.573 9.79236 91.1142 9.85326 92.4985 9.85326C93.8008 9.85326 94.8593 9.81266 96.1188 9.81266C97.686 9.81266 99.843 10.3849 99.843 12.7533C99.843 13.9133 99.0293 14.8567 97.9709 15.3062C97.9099 15.3265 97.9099 15.3671 97.9709 15.3874C99.4771 15.7741 100.799 16.7147 100.799 18.5117C100.799 20.2681 99.721 21.3711 98.1538 22.0652C97.2011 22.4944 96.0169 22.6365 94.8193 22.6365C93.9037 22.6365 91.4495 22.5398 90.0853 22.5553C89.9423 22.4944 90.2158 21.8399 90.3377 21.7384C90.6503 21.7287 90.9604 21.6793 91.2609 21.5915C91.7487 21.4697 91.8068 21.3102 91.8678 20.5746C91.9087 19.9414 91.9087 17.6746 91.9087 16.0612C91.9087 13.8553 91.9297 12.3656 91.9087 11.63C91.8887 11.0587 91.6849 10.8741 91.2981 10.7726C90.9932 10.7107 90.4844 10.6498 90.0776 10.5889C89.9757 10.4864 90.2891 9.87356 90.3901 9.79236" fill="#D8D8D8"/>
<path d="M17.388 22.5717C17.3356 22.4409 17.3143 22.2995 17.3261 22.1589C17.3215 22.063 17.3429 21.9678 17.388 21.8834C17.6512 21.8449 17.9121 21.791 18.1692 21.722C18.5293 21.6311 18.6646 21.432 18.6856 20.966C18.7446 19.865 18.7485 17.7992 18.7275 16.3473V16.3048C18.7275 16.1482 18.7275 15.9355 18.537 15.7857C18.2021 15.5725 17.8385 15.4097 17.4575 15.3023C17.287 15.2511 17.1927 15.1602 17.1974 15.0539C17.2022 14.9476 17.3099 14.8219 17.5318 14.7774C18.1216 14.7165 19.6669 14.3424 20.2738 14.0582C20.3362 14.1409 20.3652 14.2446 20.3547 14.3482C20.3547 14.412 20.3452 14.4797 20.3385 14.5493C20.3214 14.7542 20.3023 14.9872 20.3023 15.2192C20.3061 15.2474 20.3175 15.2739 20.3353 15.2959C20.3531 15.3179 20.3766 15.3343 20.4031 15.3435C20.4297 15.3526 20.4582 15.3541 20.4855 15.3477C20.5128 15.3412 20.5378 15.3272 20.5577 15.3072C21.7133 14.3879 22.7489 14.0602 23.2796 14.0602C24.1532 14.0602 24.8334 14.4836 25.3603 15.3555C25.3724 15.3765 25.3896 15.3941 25.4103 15.4064C25.431 15.4188 25.4544 15.4256 25.4784 15.4261C25.5003 15.4259 25.5217 15.4203 25.5409 15.4099C25.5602 15.3994 25.5767 15.3844 25.5889 15.3661C26.6512 14.5483 27.704 14.0602 28.409 14.0602C30.0743 14.0602 31.0699 15.3255 31.0699 17.4435C31.0699 18.0525 31.0642 18.8249 31.0585 19.545C31.0537 20.1772 31.049 20.7698 31.049 21.1797C31.049 21.2763 31.1804 21.5547 31.3776 21.6098C31.6215 21.7307 31.9731 21.7925 32.418 21.8699H32.4352C32.4685 21.9917 32.398 22.4644 32.3304 22.561C32.2198 22.561 32.0674 22.5514 31.8769 22.5417C31.531 22.5243 31.0566 22.5001 30.505 22.5001C29.3979 22.5001 28.8196 22.5214 28.267 22.5581C28.2251 22.418 28.2108 21.9656 28.2613 21.8708C28.4901 21.8345 28.7167 21.7845 28.9396 21.721C29.2922 21.6031 29.3941 21.4407 29.416 20.966C29.4246 20.6287 29.4884 17.6562 29.375 16.9505C29.2702 16.2187 28.7272 15.3623 27.5392 15.3623C27.098 15.3623 26.3864 15.5488 25.708 16.0708C25.666 16.1192 25.6423 16.1813 25.6413 16.2458V16.2603C25.7214 16.6412 25.7214 17.0858 25.7214 17.7577C25.7214 18.1443 25.7214 18.5474 25.7166 18.9505C25.7119 19.7703 25.708 20.5436 25.7214 21.1284C25.7214 21.5267 25.9586 21.6224 26.1501 21.6988C26.2539 21.722 26.3359 21.7423 26.4188 21.7616C26.5779 21.8012 26.7436 21.8418 26.9904 21.8815C27.0269 22.0513 27.0237 22.2274 26.9809 22.3957C26.9708 22.4589 26.9463 22.5188 26.9094 22.5707C26.294 22.5494 25.6623 22.5311 24.7506 22.5311C24.4743 22.5311 24.0236 22.5427 23.6254 22.5533C23.3024 22.562 22.9976 22.5707 22.8242 22.5717C22.7773 22.4594 22.7564 22.3377 22.7632 22.2159C22.7535 22.1012 22.7756 21.986 22.827 21.8834L23.0719 21.838C23.2853 21.7993 23.4701 21.7664 23.6435 21.722C23.9446 21.6253 24.0579 21.459 24.0798 21.0695C24.1389 20.1608 24.1846 17.5421 24.0579 16.8867C23.8426 15.835 23.2529 15.3014 22.304 15.3014C21.7486 15.3014 21.0464 15.573 20.4729 16.009C20.4177 16.0635 20.3742 16.129 20.3452 16.2013C20.3162 16.2737 20.3022 16.3514 20.3042 16.4295C20.3042 16.7417 20.3042 17.1129 20.3042 17.5112C20.3042 18.8258 20.2957 20.4624 20.3271 21.17C20.3462 21.3885 20.4224 21.6475 20.8254 21.7423C20.914 21.7684 21.0664 21.7935 21.2436 21.8235C21.3456 21.8409 21.457 21.8592 21.5723 21.8805C21.609 22.112 21.5903 22.349 21.518 22.5717C21.3408 22.5717 21.1226 22.5601 20.873 22.5494C20.4919 22.532 20.0156 22.5108 19.4773 22.5108C18.8409 22.5108 18.3979 22.532 18.0425 22.5494C17.8034 22.561 17.5966 22.5707 17.3899 22.5717" fill="#D8D8D8"/>
<path d="M37.8193 14.934C37.4755 14.9268 37.1373 15.0234 36.8476 15.2115C36.1407 15.6474 35.7805 16.5184 35.7805 17.7983C35.7805 20.1937 36.9628 21.867 38.6558 21.867C39.1098 21.8816 39.5525 21.7225 39.8963 21.4213C40.4164 20.9912 40.6927 20.1115 40.6927 18.88C40.6927 16.5203 39.5371 14.934 37.8174 14.934M38.1433 22.7553C35.085 22.7553 33.9961 20.4788 33.9961 18.3493C33.9961 16.8616 34.5953 15.6987 35.7777 14.8915C36.6058 14.3713 37.5563 14.0862 38.5301 14.066C40.8633 14.066 42.4934 15.7683 42.4934 18.2072C42.4934 19.864 41.8427 21.1729 40.6108 21.9907C40.0192 22.358 38.9912 22.7553 38.1433 22.7553Z" fill="#D8D8D8"/>
<path d="M68.9542 14.934C68.6096 14.9261 68.2706 15.0227 67.9805 15.2115C67.2736 15.6474 66.9134 16.5184 66.9134 17.7983C66.9134 20.1937 68.0958 21.867 69.7887 21.867C70.244 21.8826 70.6883 21.7234 71.033 21.4213C71.5532 20.9912 71.8285 20.1115 71.8285 18.88C71.8285 16.5203 70.6738 14.934 68.9542 14.934ZM69.28 22.7553C66.2218 22.7553 65.1328 20.4788 65.1328 18.3502C65.1328 16.8606 65.7321 15.6987 66.9153 14.8915C67.743 14.371 68.6933 14.0859 69.6668 14.066C72 14.066 73.6301 15.7692 73.6301 18.2062C73.6301 19.865 72.9794 21.1729 71.7475 21.9897C71.1559 22.358 70.1279 22.7553 69.28 22.7553Z" fill="#D8D8D8"/>
<path d="M58.6573 14.8528C57.715 14.8528 57.1053 15.6078 57.1053 16.7765C57.1053 17.9452 57.6303 19.3343 59.106 19.3343C59.3594 19.3343 59.8186 19.2202 60.0463 18.966C60.3893 18.646 60.618 17.9848 60.618 17.2869C60.618 15.7625 59.8863 14.8528 58.662 14.8528M58.5401 22.9187C58.2739 22.9157 58.0114 22.9823 57.7779 23.112C57.032 23.5954 56.6861 24.0787 56.6861 24.6403C56.6861 25.1662 56.8871 25.5848 57.3197 25.956C57.8437 26.4064 58.5506 26.6259 59.4795 26.6259C61.3077 26.6259 62.1271 25.6283 62.1271 24.6403C62.1271 23.9521 61.7869 23.491 61.0867 23.23C60.5475 23.0299 59.6462 22.9197 58.543 22.9197M58.6649 27.6563C57.5674 27.6563 56.7766 27.4214 56.1012 26.8936C55.4438 26.3794 55.1484 25.6157 55.1484 25.0879C55.1555 24.7478 55.2834 24.4217 55.5086 24.1696C55.6991 23.9492 56.1421 23.5364 57.1663 22.822C57.1822 22.8152 57.1957 22.8037 57.2052 22.7891C57.2147 22.7745 57.2197 22.7574 57.2196 22.7399C57.22 22.7203 57.2137 22.7013 57.2019 22.6858C57.1902 22.6703 57.1736 22.6594 57.1549 22.6548C56.3117 22.3271 56.0573 21.7848 55.9802 21.4948C55.9802 21.4842 55.9802 21.4677 55.9716 21.4494C55.9478 21.3353 55.9249 21.227 56.0783 21.1159C56.1964 21.0308 56.3851 20.9167 56.587 20.7959C56.8722 20.6358 57.1456 20.4552 57.4054 20.2555C57.4194 20.2403 57.4297 20.222 57.4357 20.2021C57.4416 20.1822 57.443 20.1612 57.4396 20.1407C57.4363 20.1201 57.4284 20.1007 57.4166 20.0837C57.4047 20.0667 57.3891 20.0528 57.3711 20.0429C56.1231 19.6175 55.4943 18.677 55.4943 17.2395C55.4904 16.7913 55.5932 16.3487 55.7939 15.9494C55.9946 15.5501 56.2873 15.2057 56.6471 14.9456C57.1491 14.5425 58.4096 14.0582 59.2261 14.0582H59.2737C60.113 14.0785 60.5865 14.2574 61.242 14.5029C61.6149 14.6397 62.0099 14.7033 62.4062 14.6904C63.1007 14.6904 63.4047 14.4671 63.6657 14.2071C63.708 14.3242 63.7306 14.4478 63.7324 14.5725C63.7483 14.8697 63.6688 15.1642 63.5056 15.4116C63.3637 15.6117 63.0293 15.7567 62.7235 15.7567C62.692 15.7567 62.6615 15.7567 62.6282 15.7518C62.4673 15.7403 62.3078 15.7135 62.1518 15.6716L62.0737 15.6996C62.049 15.7364 62.0651 15.777 62.0852 15.8292C62.09 15.8394 62.0939 15.8501 62.0966 15.8611C62.1523 16.1191 62.1902 16.3807 62.21 16.6441C62.21 18.1472 61.6259 18.8017 60.9943 19.2869C60.3836 19.7519 59.6583 20.0368 58.8983 20.1105C58.8821 20.1105 58.8031 20.1173 58.6544 20.1308C58.5592 20.1395 58.4353 20.1511 58.4172 20.1511H58.3991C58.2619 20.1898 57.9037 20.3628 57.9037 20.6847C57.9037 20.9515 58.0656 21.2831 58.8402 21.343L59.3413 21.3788C60.3626 21.4513 61.6383 21.5412 62.2385 21.7471C62.6367 21.8892 62.9806 22.155 63.2212 22.5068C63.4619 22.8585 63.5871 23.2784 63.579 23.7065C63.579 25.055 62.6339 26.3233 61.0515 27.0986C60.3052 27.4602 59.4881 27.6463 58.6611 27.6428" fill="#D8D8D8"/>
<path d="M53.9826 21.8525C53.5348 21.7916 53.208 21.7297 52.8222 21.546C52.7465 21.4665 52.6966 21.3652 52.6793 21.256C52.6383 20.6229 52.6383 18.7852 52.6383 17.5827C52.6383 16.6015 52.4763 15.746 52.0667 15.1322C51.5779 14.4372 50.8863 14.0292 49.9907 14.0292C49.1971 14.0292 48.1386 14.5802 47.264 15.3362C47.2431 15.3565 47.1087 15.486 47.1116 15.2849C47.1145 15.0839 47.1449 14.6759 47.164 14.4149C47.1725 14.3456 47.1648 14.2752 47.1416 14.2094C47.1185 14.1436 47.0805 14.0842 47.0306 14.036C46.459 14.326 44.8556 14.7127 44.262 14.7716C43.8295 14.8567 43.7199 15.2791 44.182 15.4251H44.1887C44.5585 15.5286 44.9116 15.6862 45.2367 15.893C45.4196 16.036 45.3996 16.24 45.3996 16.4034C45.4196 17.7712 45.4196 19.8747 45.3586 21.0182C45.3386 21.4677 45.2157 21.6311 44.8899 21.7133L44.9204 21.7026C44.6722 21.7657 44.4206 21.8135 44.1668 21.8457C44.0648 21.9472 44.0648 22.5398 44.1668 22.6625C44.3706 22.6625 45.4053 22.6016 46.2627 22.6016C47.4422 22.6016 48.0529 22.6625 48.3587 22.6625C48.4816 22.5195 48.5216 21.9685 48.4406 21.8457C48.1588 21.8328 47.879 21.7916 47.6051 21.7229C47.2802 21.6417 47.1983 21.4774 47.1783 21.111C47.1383 20.1502 47.1383 18.1086 47.1383 16.7195C47.1383 16.3328 47.2393 16.1482 47.3612 16.0428C47.768 15.6755 48.4406 15.4309 49.0304 15.4309C49.602 15.4309 49.9831 15.6146 50.2689 15.8591C50.6018 16.1539 50.8105 16.567 50.852 17.0133C50.9329 17.7867 50.912 19.342 50.912 20.6867C50.912 21.4223 50.852 21.6069 50.5871 21.6881C50.4652 21.749 50.1393 21.8109 49.7525 21.8515C49.6306 21.9743 49.6706 22.5456 49.7525 22.6683C50.2813 22.6683 50.8958 22.6074 51.7875 22.6074C52.907 22.6074 53.6196 22.6683 53.9045 22.6683C54.0264 22.5253 54.0674 21.9917 53.9864 21.8515" fill="#D8D8D8"/>
</g>
<defs>
<clipPath id="clip0_1249_3270">
<rect width="106" height="29" fill="white" transform="translate(0.0722656)"/>
</clipPath>
</defs>
</svg>
