<svg width="62" height="23" viewBox="0 0 62 23" fill="none" xmlns="http://www.w3.org/2000/svg">
<path d="M6.83906 22.4911C4.99172 22.418 3.48031 21.9147 2.29852 20.9799C2.07298 20.8014 1.53554 20.266 1.35524 20.0401C0.876002 19.4402 0.550186 18.8563 0.33287 18.2084C-0.335843 16.2142 0.00831938 13.5973 1.31728 10.7253C2.43802 8.26655 4.16737 5.82793 7.18449 2.45046C7.62893 1.95347 8.95244 0.5 8.96098 0.5C8.96414 0.5 8.89202 0.624403 8.80123 0.775893C8.01675 2.08417 7.3455 3.6252 6.97983 4.95931C6.39241 7.09999 6.46327 8.93707 7.18734 10.3616C7.68682 11.3429 8.54311 12.193 9.50601 12.6629C11.1917 13.4852 13.6597 13.5532 16.6736 12.8619C16.8811 12.814 27.1636 10.0964 39.5238 6.82252C51.8839 3.54835 61.9984 0.871635 62 0.873839C62.0035 0.876678 33.2839 13.1123 18.3752 19.46C16.0141 20.465 15.3827 20.7189 14.2727 21.1069C11.4353 22.0989 8.8936 22.5723 6.83906 22.4911Z" fill="#D8D8D8"/>
</svg>
