<svg width="56" height="21" viewBox="0 0 56 21" fill="none" xmlns="http://www.w3.org/2000/svg">
<g clip-path="url(#clip0_1249_3246)">
<path d="M3.22187 14.7837C3.45852 15.4298 3.78615 15.9823 4.20484 16.441C4.62352 16.8999 5.11954 17.251 5.69288 17.4944C6.26629 17.7379 6.88973 17.8596 7.56324 17.8596C8.21858 17.8596 8.83289 17.7332 9.4063 17.4803C9.97971 17.2275 10.4803 16.8717 10.908 16.4129C11.3357 15.9541 11.668 15.4064 11.9046 14.7697C12.1413 14.133 12.2596 13.4214 12.2596 12.6349V0.5H15.1265V20.1629H12.2869V18.3371C11.6498 19.0299 10.8989 19.5636 10.0343 19.9382C9.16959 20.3127 8.23676 20.5 7.23561 20.5C6.21621 20.5 5.26514 20.3174 4.38228 19.9522C3.49948 19.5871 2.73491 19.0675 2.08876 18.3933C1.44261 17.7191 0.932884 16.9093 0.559755 15.9635C0.186565 15.0178 0 13.9645 0 12.8034V0.5H2.86692V12.6349C2.86692 13.4214 2.98522 14.1376 3.22187 14.7837Z" fill="#D8D8D8"/>
<path d="M20.0682 0.500061V7.66297C20.7053 7.00755 21.4426 6.48793 22.2799 6.104C23.1172 5.72007 24.0274 5.52814 25.0103 5.52814C26.0297 5.52814 26.9852 5.72474 27.8772 6.11799C28.7691 6.51124 29.5427 7.04497 30.198 7.71916C30.8533 8.39335 31.3721 9.18918 31.7544 10.1068C32.1366 11.0244 32.3277 11.9982 32.3277 13.0282C32.3277 14.0581 32.1366 15.0272 31.7544 15.9354C31.3721 16.8437 30.8533 17.6349 30.198 18.309C29.5427 18.9832 28.7691 19.5169 27.8772 19.9101C26.9852 20.3034 26.0296 20.5 25.0103 20.5C24.0273 20.5 23.1127 20.3081 22.2662 19.9241C21.4198 19.5403 20.678 19.0206 20.0409 18.3652V20.1629H17.3105V0.500061H20.0682ZM20.3822 14.9664C20.6279 15.5656 20.9693 16.09 21.4061 16.5394C21.843 16.9889 22.3527 17.3447 22.9352 17.6069C23.5177 17.869 24.1457 18.0001 24.8192 18.0001C25.4745 18.0001 26.0933 17.869 26.6758 17.6069C27.2583 17.3447 27.7634 16.9889 28.1912 16.5394C28.619 16.09 28.9603 15.5656 29.2151 14.9664C29.4699 14.3671 29.5974 13.7211 29.5974 13.0282C29.5974 12.3353 29.4699 11.6845 29.2151 11.0759C28.9603 10.4673 28.619 9.93827 28.1912 9.48883C27.7634 9.03945 27.2584 8.68828 26.6758 8.43549C26.0933 8.18271 25.4744 8.05623 24.8192 8.05623C24.1639 8.05623 23.545 8.18265 22.9625 8.43549C22.3801 8.68834 21.8704 9.03945 21.4335 9.48883C20.9967 9.93827 20.6508 10.4673 20.3959 11.0759C20.1411 11.6845 20.0137 12.3353 20.0137 13.0282C20.0136 13.7211 20.1365 14.3671 20.3822 14.9664Z" fill="#D8D8D8"/>
<path d="M33.8839 10.1349C34.2479 9.23603 34.7485 8.44486 35.3856 7.76134C36.0226 7.07782 36.7781 6.53944 37.6518 6.14618C38.5256 5.75293 39.4721 5.55634 40.4915 5.55634C41.4926 5.55634 42.421 5.74361 43.2765 6.11809C44.132 6.49264 44.8692 7.01231 45.4881 7.67712C46.107 8.34187 46.5894 9.12844 46.9352 10.0366C47.2811 10.9449 47.454 11.9327 47.454 13.0002V13.9272H36.1228C36.2139 14.5077 36.3959 15.0461 36.6689 15.5423C36.942 16.0385 37.2832 16.4692 37.6928 16.8344C38.1024 17.1996 38.5665 17.4852 39.0853 17.6911C39.6041 17.8971 40.1547 18.0002 40.7372 18.0002C42.3937 18.0002 43.7316 17.2979 44.751 15.8934L46.7442 17.4102C46.0525 18.3653 45.197 19.1144 44.1776 19.6574C43.1582 20.2005 42.0115 20.472 40.7373 20.472C39.6997 20.472 38.7304 20.2847 37.8294 19.9102C36.9284 19.5357 36.1457 19.0113 35.4813 18.3371C34.8169 17.6629 34.2936 16.8717 33.9113 15.9635C33.529 15.0553 33.3379 14.0674 33.3379 13.0001C33.3378 11.9889 33.5199 11.0338 33.8839 10.1349ZM37.7201 9.02532C36.9465 9.69013 36.4323 10.575 36.1774 11.6798H44.669C44.4324 10.575 43.9273 9.69013 43.1536 9.02532C42.38 8.36058 41.4744 8.02817 40.4369 8.02817C39.3993 8.02817 38.4937 8.36058 37.7201 9.02532Z" fill="#D8D8D8"/>
<path d="M52.6139 9.34836C52.0314 10.0038 51.7402 10.8933 51.7402 12.0169V20.1631H48.9824V5.83717H51.7128V7.60684C52.0587 7.02632 52.5092 6.56749 53.0644 6.23042C53.6195 5.8933 54.2794 5.72473 55.044 5.72473H55.9996V8.36519H54.8528C53.9427 8.36526 53.1964 8.69294 52.6139 9.34836Z" fill="#D8D8D8"/>
</g>
<defs>
<clipPath id="clip0_1249_3246">
<rect width="56" height="20" fill="white" transform="translate(0 0.5)"/>
</clipPath>
</defs>
</svg>
