<svg width="40" height="40" viewBox="0 0 40 40" fill="none" xmlns="http://www.w3.org/2000/svg">
<path d="M14.5833 26.3337L29.7499 22.2224C30.2035 22.093 30.5392 21.8592 30.757 21.5212C30.9745 21.1831 31.0184 20.7873 30.8887 20.3337C30.7592 19.88 30.5116 19.5582 30.1458 19.3682C29.7799 19.1785 29.3813 19.1405 28.9499 19.2541L24.722 20.3616L17.8887 13.7782L15.6666 14.3057L19.8612 21.667L15.4445 22.8616L13.3053 21.1391L11.972 21.5557L14.5833 26.3337ZM33.8887 33.3337H6.11117C5.34728 33.3337 4.69325 33.0617 4.14909 32.5178C3.6052 31.9737 3.33325 31.3196 3.33325 30.5557V24.0837C4.32409 23.9356 5.15506 23.4796 5.82617 22.7157C6.49756 21.9519 6.83325 21.0467 6.83325 20.0003C6.83325 18.9539 6.49756 18.0442 5.82617 17.2712C5.15506 16.4981 4.32409 16.0467 3.33325 15.917V9.44491C3.33325 8.68102 3.6052 8.02699 4.14909 7.48283C4.69325 6.93894 5.34728 6.66699 6.11117 6.66699H33.8887C34.6526 6.66699 35.3066 6.93894 35.8508 7.48283C36.3946 8.02699 36.6666 8.68102 36.6666 9.44491V30.5557C36.6666 31.3196 36.3946 31.9737 35.8508 32.5178C35.3066 33.0617 34.6526 33.3337 33.8887 33.3337ZM33.8887 30.5557V9.44491H6.11117V13.8891C7.17589 14.5744 8.02534 15.4471 8.6595 16.5074C9.29395 17.5674 9.61117 18.7317 9.61117 20.0003C9.61117 21.2689 9.29395 22.4332 8.6595 23.4932C8.02534 24.5535 7.17589 25.4263 6.11117 26.1116V30.5557H33.8887Z" fill="#E3E3E3"/>
</svg>
