<svg width="40" height="40" viewBox="0 0 40 40" fill="none" xmlns="http://www.w3.org/2000/svg">
<path d="M32.9446 34.7778L22.1112 23.9445L24.1667 21.8887L35 32.722L32.9446 34.7778ZM9.52792 33.1112C7.99069 31.4814 6.85181 29.6666 6.11125 27.6666C5.37042 25.6666 5 23.6295 5 21.5553C5 19.3887 5.40278 17.2776 6.20833 15.222C7.01389 13.1664 8.24069 11.3146 9.88875 9.66659C11.5371 8.01853 13.396 6.78937 15.4654 5.97909C17.5349 5.16881 19.6529 4.76367 21.8196 4.76367C23.8935 4.76367 25.9282 5.13645 27.9237 5.882C29.919 6.62728 31.7222 7.76839 33.3333 9.30534L9.52792 33.1112ZM9.72208 28.9445L12.3887 26.2499C11.9443 25.648 11.5068 25.0091 11.0762 24.3333C10.6457 23.6574 10.2499 22.9537 9.88875 22.222C9.52764 21.4906 9.22208 20.7406 8.97208 19.972C8.72208 19.2037 8.53694 18.4259 8.41667 17.6387C7.81472 19.5553 7.63653 21.4998 7.88208 23.472C8.12736 25.4442 8.74069 27.2684 9.72208 28.9445ZM14.5279 24.222L24.4446 14.222C23.1946 13.2498 21.9283 12.479 20.6458 11.9095C19.3633 11.3401 18.1481 10.9605 17 10.7708C15.8519 10.581 14.8265 10.5695 13.9238 10.7362C13.021 10.9028 12.3242 11.2314 11.8333 11.722C11.3425 12.222 11.0276 12.9234 10.8887 13.8262C10.7499 14.7289 10.7846 15.7428 10.9929 16.8678C11.2012 17.9928 11.5994 19.1851 12.1875 20.4445C12.7756 21.7037 13.5557 22.9628 14.5279 24.222ZM26.4721 12.1666L29.25 9.49992C27.5369 8.42575 25.6897 7.77756 23.7083 7.55534C21.7269 7.33312 19.7779 7.54617 17.8613 8.1945C18.6204 8.31478 19.375 8.49992 20.125 8.74992C20.875 8.99992 21.6157 9.29395 22.3471 9.632C23.0788 9.96978 23.7894 10.354 24.4792 10.7845C25.1689 11.2151 25.8332 11.6758 26.4721 12.1666Z" fill="#E3E3E3"/>
</svg>
