<svg width="40" height="40" viewBox="0 0 40 40" fill="none" xmlns="http://www.w3.org/2000/svg">
<path d="M13.8888 35C11.4165 35 9.31708 34.1365 7.59042 32.4096C5.86347 30.6829 5 28.5835 5 26.1113C5 25.0557 5.18056 24.0418 5.54167 23.0696C5.90278 22.0974 6.40736 21.2085 7.05542 20.4029L13.25 12.9721L9.26375 5H30.7638L26.7779 12.9721L32.9446 20.4029C33.6112 21.2085 34.1204 22.0974 34.4721 23.0696C34.824 24.0418 35.0093 25.0557 35.0279 26.1113C35.0279 28.5835 34.1621 30.6829 32.4304 32.4096C30.699 34.1365 28.6018 35 26.1388 35H13.8888ZM20 26.1667C19.2314 26.1667 18.581 25.8958 18.0488 25.3542C17.5163 24.8125 17.25 24.1574 17.25 23.3888C17.25 22.6204 17.5163 21.9654 18.0488 21.4238C18.581 20.8821 19.2314 20.6113 20 20.6113C20.7869 20.6113 21.4513 20.8821 21.9929 21.4238C22.5346 21.9654 22.8054 22.6204 22.8054 23.3888C22.8054 24.1574 22.5346 24.8125 21.9929 25.3542C21.4513 25.8958 20.7869 26.1667 20 26.1667ZM15.7638 11.8054H24.2362L26.2638 7.77792H13.7638L15.7638 11.8054ZM13.8888 32.2221H26.1112C27.8057 32.2221 29.2478 31.6272 30.4375 30.4375C31.6272 29.2478 32.2221 27.8057 32.2221 26.1113C32.2221 25.389 32.0994 24.6922 31.8542 24.0208C31.6089 23.3494 31.2593 22.7453 30.8054 22.2083L24.4583 14.5833H15.5554L9.22208 22.1946C8.76847 22.7315 8.41431 23.3379 8.15958 24.0138C7.90514 24.6899 7.77792 25.389 7.77792 26.1113C7.77792 27.8057 8.37278 29.2478 9.5625 30.4375C10.7522 31.6272 12.1943 32.2221 13.8888 32.2221Z" fill="#E3E3E3"/>
</svg>
