<svg width="40" height="40" viewBox="0 0 40 40" fill="none" xmlns="http://www.w3.org/2000/svg">
<path d="M13.5554 33.8884H26.4446L28.3333 26.3884H11.6667L13.5554 33.8884ZM13.5554 36.6663C12.926 36.6663 12.3632 36.4715 11.8671 36.0818C11.371 35.6923 11.0403 35.1882 10.875 34.5693L8.80542 26.3884H31.1946L29.125 34.5693C28.9597 35.1882 28.629 35.6923 28.1329 36.0818C27.6368 36.4715 27.074 36.6663 26.4446 36.6663H13.5554ZM7.77792 23.6109H32.2221V19.7218H7.77792V23.6109ZM20.0279 13.3051C20.0279 10.7681 21.0464 8.49509 23.0833 6.48592C25.1203 4.47648 27.4165 3.42551 29.9721 3.33301C29.9165 5.66634 29.0324 7.78204 27.3196 9.68009C25.6065 11.5784 23.6296 12.7312 21.3888 13.1384V16.9443H35V23.6109C35 24.3748 34.7281 25.0287 34.1842 25.5726C33.64 26.1165 32.986 26.3884 32.2221 26.3884H7.77792C7.01403 26.3884 6.36 26.1165 5.81583 25.5726C5.27194 25.0287 5 24.3748 5 23.6109V16.9443H18.6113V13.1384C16.3704 12.7312 14.3982 11.5784 12.6946 9.68009C10.9907 7.78204 10.1018 5.66634 10.0279 3.33301C12.5835 3.42551 14.889 4.47176 16.9446 6.47176C19.0001 8.47176 20.0279 10.7495 20.0279 13.3051Z" fill="#E3E3E3"/>
</svg>
