<svg width="40" height="40" viewBox="0 0 40 40" fill="none" xmlns="http://www.w3.org/2000/svg">
<path d="M19.9999 36.6663C17.6944 36.6663 15.5277 36.2288 13.4999 35.3538C11.4721 34.4788 9.70825 33.2913 8.20825 31.7913C6.70825 30.2913 5.52075 28.5275 4.64575 26.4997C3.77075 24.4719 3.33325 22.3052 3.33325 19.9997C3.33325 17.6941 3.77075 15.5275 4.64575 13.4997C5.52075 11.4719 6.70825 9.70801 8.20825 8.20801C9.70825 6.70801 11.4721 5.52051 13.4999 4.64551C15.5277 3.77051 17.6944 3.33301 19.9999 3.33301C22.3055 3.33301 24.4721 3.77051 26.4999 4.64551C28.5277 5.52051 30.2916 6.70801 31.7916 8.20801C33.2916 9.70801 34.4791 11.4719 35.3541 13.4997C36.2291 15.5275 36.6666 17.6941 36.6666 19.9997C36.6666 22.3052 36.2291 24.4719 35.3541 26.4997C34.4791 28.5275 33.2916 30.2913 31.7916 31.7913C30.2916 33.2913 28.5277 34.4788 26.4999 35.3538C24.4721 36.2288 22.3055 36.6663 19.9999 36.6663ZM18.2499 33.833V30.4718C17.2963 30.4718 16.4884 30.1223 15.8262 29.4234C15.1642 28.7243 14.8333 27.8979 14.8333 26.9443V25.1663L6.472 16.8051C6.35172 17.3423 6.26145 17.8748 6.20117 18.4026C6.14117 18.9304 6.11117 19.4627 6.11117 19.9997C6.11117 23.5275 7.26159 26.6108 9.56242 29.2497C11.8633 31.8886 14.7591 33.4163 18.2499 33.833ZM30.2499 29.4163C31.4444 28.1108 32.3495 26.6501 32.9653 25.0343C33.5809 23.4187 33.8887 21.7405 33.8887 19.9997C33.8887 17.1294 33.0994 14.5183 31.5208 12.1663C29.9421 9.8144 27.8334 8.10148 25.1945 7.02759V7.74967C25.1945 8.70329 24.8634 9.52968 24.2012 10.2288C23.5392 10.928 22.7314 11.2776 21.7778 11.2776H18.2499V14.8051C18.2499 15.2773 18.0717 15.6686 17.7153 15.9788C17.3587 16.2891 16.9442 16.4443 16.472 16.4443H13.0553V19.9997H23.5553C24.0276 19.9997 24.4188 20.1733 24.7291 20.5205C25.0394 20.8677 25.1945 21.2775 25.1945 21.7497V26.9443H26.9445C27.7223 26.9443 28.412 27.1734 29.0137 27.6318C29.6156 28.0901 30.0277 28.685 30.2499 29.4163Z" fill="#E3E3E3"/>
</svg>
