<svg width="34" height="34" viewBox="0 0 34 34" fill="none" xmlns="http://www.w3.org/2000/svg">
<path d="M5.3333 13.9309L9.36121 15.6392C9.82399 14.7134 10.3147 13.806 10.8333 12.9171C11.3519 12.0282 11.9075 11.1671 12.5 10.3338L9.52788 9.7367L5.3333 13.9309ZM11.5833 17.3338L16.8612 22.5975C18.3057 21.9681 19.713 21.195 21.0833 20.2784C22.4536 19.3617 23.6202 18.4218 24.5833 17.4588C26.7314 15.3107 28.3401 13.0538 29.4095 10.6879C30.479 8.32212 31.0184 5.81517 31.0279 3.16711C28.3795 3.17628 25.8702 3.71559 23.5 4.78503C21.1297 5.85448 18.8704 7.46336 16.722 9.6117C15.7593 10.5745 14.8195 11.7411 13.9029 13.1117C12.9862 14.482 12.213 15.8893 11.5833 17.3338ZM20.4166 13.7642C19.8333 13.1809 19.5416 12.461 19.5416 11.6046C19.5416 10.7482 19.8333 10.0284 20.4166 9.44503C21 8.8617 21.7222 8.57003 22.5833 8.57003C23.4444 8.57003 24.1666 8.8617 24.75 9.44503C25.3333 10.0284 25.625 10.7482 25.625 11.6046C25.625 12.461 25.3333 13.1809 24.75 13.7642C24.1666 14.3475 23.4444 14.6392 22.5833 14.6392C21.7222 14.6392 21 14.3475 20.4166 13.7642ZM20.2637 28.8617L24.4583 24.6671L23.8612 21.695C23.0279 22.2875 22.1668 22.8407 21.2779 23.3546C20.389 23.8685 19.4815 24.357 18.5554 24.82L20.2637 28.8617ZM33.6666 0.514198C34.0091 4.15309 33.5855 7.53975 32.3958 10.6742C31.2061 13.8084 29.213 16.7736 26.4166 19.57C26.398 19.5884 26.3795 19.6068 26.3612 19.6255C26.3426 19.6441 26.324 19.6625 26.3054 19.6809L27.1945 24.1117C27.287 24.5745 27.2639 25.0235 27.125 25.4588C26.9861 25.8941 26.75 26.2784 26.4166 26.6117L19.3333 33.7225L15.8054 25.4867L8.7083 18.3892L0.472046 14.8617L7.56955 7.77836C7.90288 7.44503 8.28941 7.20892 8.72913 7.07003C9.16885 6.93114 9.62024 6.90795 10.0833 7.00045L14.5137 7.8892C14.5323 7.87087 14.5509 7.85698 14.5695 7.84753C14.5879 7.83837 14.6064 7.82448 14.625 7.80587C17.4214 5.00975 20.3843 3.00975 23.5137 1.80587C26.6434 0.602254 30.0277 0.171698 33.6666 0.514198ZM3.31955 23.5142C4.29177 22.542 5.47927 22.0489 6.88205 22.035C8.28482 22.0211 9.47233 22.5003 10.4445 23.4725C11.4168 24.4448 11.8959 25.6323 11.882 27.035C11.8682 28.4378 11.3751 29.6253 10.4029 30.5975C9.68983 31.3106 8.55788 31.9078 7.00705 32.3892C5.45594 32.8709 3.19427 33.3153 0.222046 33.7225C0.629546 30.7503 1.06941 28.4842 1.54163 26.9242C2.01385 25.3639 2.60649 24.2273 3.31955 23.5142ZM5.27788 25.4867C4.92594 25.857 4.60177 26.4611 4.30538 27.2992C4.00927 28.137 3.76857 29.1439 3.5833 30.32C4.75913 30.1348 5.76607 29.8963 6.60413 29.6046C7.44219 29.313 8.04635 28.9911 8.41663 28.6392C8.87969 28.2134 9.12038 27.6856 9.13871 27.0559C9.15732 26.4264 8.94441 25.8802 8.49996 25.4171C8.03691 24.9727 7.49066 24.7574 6.86121 24.7713C6.23149 24.7852 5.70371 25.0236 5.27788 25.4867Z" fill="#E3E3E3"/>
</svg>
