<svg width="40" height="40" viewBox="0 0 40 40" fill="none" xmlns="http://www.w3.org/2000/svg">
<path d="M29.1146 34.6113L18.5867 24C17.9756 24.2222 17.3621 24.3982 16.7463 24.5279C16.1307 24.6574 15.4942 24.7221 14.8367 24.7221C12.1128 24.7221 9.79764 23.7715 7.89125 21.8704C5.98458 19.969 5.03125 17.6604 5.03125 14.9446C5.03125 14.0371 5.15306 13.1607 5.39667 12.3154C5.64028 11.4704 5.98139 10.6708 6.42 9.91667L12.4754 15.9721L16.0313 12.5833L9.86458 6.41667C10.6129 5.96917 11.4065 5.62125 12.2454 5.37292C13.084 5.12431 13.9478 5 14.8367 5C17.5989 5 19.9469 5.96681 21.8808 7.90042C23.8144 9.83403 24.7813 12.1821 24.7813 14.9446C24.7813 15.6018 24.7164 16.2383 24.5867 16.8542C24.4569 17.47 24.281 18.0835 24.0588 18.6946L34.6421 29.2221C34.9571 29.5363 35.1146 29.9157 35.1146 30.3604C35.1146 30.8054 34.9571 31.1853 34.6421 31.5L31.3646 34.6113C31.0554 34.926 30.6818 35.0833 30.2438 35.0833C29.8057 35.0833 29.4293 34.926 29.1146 34.6113ZM30.295 31.8471L31.7813 30.3613L20.6421 19.2221C21.1051 18.6482 21.4478 17.9746 21.67 17.2013C21.8922 16.4282 22.0033 15.676 22.0033 14.9446C22.0033 13.0001 21.3113 11.3404 19.9271 9.96542C18.5426 8.59042 16.9292 7.85194 15.0867 7.75L18.9479 11.6667C19.2257 11.9444 19.3599 12.2732 19.3504 12.6529C19.3413 13.0324 19.1978 13.361 18.92 13.6388L13.4479 18.8888C13.1649 19.1482 12.8349 19.2779 12.4579 19.2779C12.0807 19.2779 11.7625 19.1482 11.5033 18.8888L7.75333 15.1667C7.89222 17.1203 8.64611 18.7383 10.015 20.0208C11.3839 21.3033 12.9911 21.9446 14.8367 21.9446C15.5403 21.9446 16.2718 21.8335 17.0313 21.6113C17.7904 21.389 18.4617 21.051 19.045 20.5971L30.295 31.8471Z" fill="#E3E3E3"/>
</svg>
