<svg width="40" height="40" viewBox="0 0 40 40" fill="none" xmlns="http://www.w3.org/2000/svg">
<path d="M15.4721 24.5279V15.5H24.5V24.5279H15.4721ZM18.25 21.75H21.7221V18.2779H18.25V21.75ZM15 35V31.6667H11.1113C10.3613 31.6667 9.71069 31.3913 9.15958 30.8404C8.60875 30.2893 8.33333 29.6387 8.33333 28.8887V25H5V22.2221H8.33333V17.6667H5V14.8888H8.33333V11C8.33333 10.25 8.60875 9.59958 9.15958 9.04875C9.71069 8.49764 10.3613 8.22208 11.1113 8.22208H15V5H17.7779V8.22208H22.3333V5H25.1112V8.22208H29C29.75 8.22208 30.4004 8.49764 30.9513 9.04875C31.5024 9.59958 31.7779 10.25 31.7779 11V14.8888H35V17.6667H31.7779V22.2221H35V25H31.7779V28.8887C31.7779 29.6387 31.5024 30.2893 30.9513 30.8404C30.4004 31.3913 29.75 31.6667 29 31.6667H25.1112V35H22.3333V31.6667H17.7779V35H15ZM29 28.8887V11H11.1113V28.8887H29Z" fill="#E3E3E3"/>
</svg>
