<svg width="40" height="40" viewBox="0 0 40 40" fill="none" xmlns="http://www.w3.org/2000/svg">
<path d="M20 35C15.8056 35 12.2569 34.3542 9.35417 33.0625C6.45139 31.7708 5 30.1944 5 28.3333V11.6667C5 9.83333 6.46528 8.26389 9.39583 6.95833C12.3264 5.65278 15.8611 5 20 5C24.1389 5 27.6736 5.65278 30.6042 6.95833C33.5347 8.26389 35 9.83333 35 11.6667V28.3333C35 30.1944 33.5486 31.7708 30.6458 33.0625C27.7431 34.3542 24.1944 35 20 35ZM20 14.7917C22.4167 14.7917 24.8796 14.4282 27.3888 13.7013C29.8982 12.9746 31.4446 12.1714 32.0279 11.2917C31.426 10.4306 29.8726 9.62958 27.3679 8.88875C24.8635 8.1482 22.4075 7.77792 20 7.77792C17.5278 7.77792 15.0625 8.13667 12.6042 8.85417C10.1458 9.57167 8.59264 10.3842 7.94458 11.2917C8.59264 12.2175 10.1365 13.0324 12.5762 13.7362C15.0162 14.4399 17.4908 14.7917 20 14.7917ZM19.9721 23.5C21.1388 23.5 22.2915 23.4399 23.4304 23.3196C24.5693 23.199 25.6596 23.0207 26.7013 22.7846C27.7429 22.5485 28.7337 22.2592 29.6737 21.9167C30.6135 21.5742 31.4629 21.1899 32.2221 20.7638V14.7917C31.4443 15.2175 30.5856 15.6018 29.6458 15.9446C28.7061 16.2871 27.7107 16.5764 26.6596 16.8125C25.6088 17.0486 24.5232 17.2315 23.4029 17.3612C22.2824 17.4907 21.1388 17.5554 19.9721 17.5554C18.8054 17.5554 17.6481 17.4907 16.5 17.3612C15.3519 17.2315 14.2571 17.0486 13.2154 16.8125C12.1738 16.5764 11.1899 16.2871 10.2638 15.9446C9.33792 15.6018 8.50931 15.2175 7.77792 14.7917V20.7638C8.50931 21.1899 9.33333 21.5742 10.25 21.9167C11.1667 22.2592 12.1458 22.5485 13.1875 22.7846C14.2292 23.0207 15.324 23.199 16.4721 23.3196C17.6204 23.4399 18.7871 23.5 19.9721 23.5ZM20 32.2221C21.3147 32.2221 22.6643 32.111 24.0487 31.8888C25.4329 31.6665 26.7038 31.3726 27.8612 31.0071C29.0185 30.6413 29.9953 30.2338 30.7917 29.7846C31.5881 29.3357 32.0649 28.8751 32.2221 28.4029V23.5696C31.4629 23.9954 30.6135 24.375 29.6737 24.7083C28.7337 25.0417 27.7429 25.3264 26.7013 25.5625C25.6596 25.7986 24.574 25.9768 23.4446 26.0971C22.3149 26.2176 21.1574 26.2779 19.9721 26.2779C18.7871 26.2779 17.6204 26.2176 16.4721 26.0971C15.324 25.9768 14.2292 25.7986 13.1875 25.5625C12.1458 25.3264 11.1667 25.0417 10.25 24.7083C9.33333 24.375 8.50931 23.9954 7.77792 23.5696V28.4446C7.91681 28.8982 8.37736 29.3518 9.15958 29.8054C9.94208 30.2593 10.9167 30.6644 12.0833 31.0208C13.25 31.3772 14.5278 31.6665 15.9167 31.8888C17.3056 32.111 18.6667 32.2221 20 32.2221Z" fill="#E3E3E3"/>
</svg>
