<svg width="40" height="40" viewBox="0 0 40 40" fill="none" xmlns="http://www.w3.org/2000/svg">
<path d="M7.77792 35C7.02792 35 6.37736 34.7246 5.82625 34.1737C5.27542 33.6226 5 32.9721 5 32.2221V7.77792C5 7.02792 5.27542 6.37736 5.82625 5.82625C6.37736 5.27542 7.02792 5 7.77792 5H32.2221C32.9721 5 33.6226 5.27542 34.1737 5.82625C34.7246 6.37736 35 7.02792 35 7.77792V11.3888H32.2221V7.77792H7.77792V32.2221H32.2221V28.6113H35V32.2221C35 32.9721 34.7246 33.6226 34.1737 34.1737C33.6226 34.7246 32.9721 35 32.2221 35H7.77792ZM28.7221 27.9446L26.7779 26L31.3471 21.3888H15V18.6112H31.3471L26.7779 14L28.7221 12.0554L36.6667 20L28.7221 27.9446Z" fill="#E3E3E3"/>
</svg>
