<svg width="219" height="99" viewBox="0 0 219 99" fill="none" xmlns="http://www.w3.org/2000/svg">
<path d="M219 79C219 90.0457 210.046 99 199 99L20 99C8.9543 99 -7.8281e-07 90.0457 -1.74846e-06 79L-5.15794e-06 40C-6.12359e-06 28.9543 8.95429 20 20 20L50.9974 20C52.6043 20 54.0552 19.0384 54.6813 17.5584L60.2669 4.3543C60.9555 2.72656 63.2623 2.72656 63.9509 4.35429L69.5366 17.5584C70.1626 19.0384 71.6136 20 73.2205 20L199 20C210.046 20 219 28.9543 219 40L219 79Z" fill="white" fill-opacity="0.05"/>
<path d="M218.5 79C218.5 89.7696 209.77 98.5 199 98.5L20 98.5C9.23044 98.5 0.499999 89.7696 0.499998 79L0.499995 40C0.499994 29.2305 9.23043 20.5 20 20.5L50.9974 20.5C52.8052 20.5 54.4375 19.4182 55.1418 17.7532L60.7274 4.5491C61.2439 3.32829 62.974 3.3283 63.4904 4.54909L69.0761 17.7532C69.7804 19.4182 71.4127 20.5 73.2205 20.5L199 20.5C209.77 20.5 218.5 29.2304 218.5 40L218.5 79Z" stroke="white" stroke-opacity="0.1"/>
<path d="M41.017 66.24C39.7504 66.24 38.6637 65.9467 37.757 65.36C36.8504 64.76 36.157 63.94 35.677 62.9C35.197 61.86 34.957 60.66 34.957 59.3C34.957 57.9133 35.2104 56.7067 35.717 55.68C36.237 54.64 36.9637 53.8333 37.897 53.26C38.8304 52.6867 39.9237 52.4 41.177 52.4C42.297 52.4 43.3037 52.66 44.197 53.18C45.1037 53.7 45.7837 54.4467 46.237 55.42L44.597 56.02C44.3037 55.42 43.857 54.9333 43.257 54.56C42.6704 54.1733 41.9437 53.98 41.077 53.98C40.2904 53.98 39.577 54.18 38.937 54.58C38.3104 54.98 37.8104 55.58 37.437 56.38C37.0637 57.1667 36.877 58.14 36.877 59.3C36.877 60.42 37.057 61.38 37.417 62.18C37.777 62.98 38.277 63.5933 38.917 64.02C39.5704 64.4467 40.3104 64.66 41.137 64.66C42.0037 64.66 42.7304 64.4733 43.317 64.1C43.917 63.7267 44.3704 63.2333 44.677 62.62L46.317 63.22C45.837 64.2067 45.1304 64.96 44.197 65.48C43.2637 65.9867 42.2037 66.24 41.017 66.24ZM48.602 66V64.52H50.482V54.12H48.602V52.64H54.242V54.12H52.362V64.52H54.242V66H48.602ZM56.0633 66L61.2633 52.64H63.0033L57.8033 66H56.0633ZM70.5623 66.24C69.2957 66.24 68.209 65.9467 67.3023 65.36C66.3957 64.76 65.7023 63.94 65.2223 62.9C64.7423 61.86 64.5023 60.66 64.5023 59.3C64.5023 57.9133 64.7557 56.7067 65.2623 55.68C65.7823 54.64 66.509 53.8333 67.4423 53.26C68.3757 52.6867 69.469 52.4 70.7223 52.4C71.8423 52.4 72.849 52.66 73.7423 53.18C74.649 53.7 75.329 54.4467 75.7823 55.42L74.1423 56.02C73.849 55.42 73.4023 54.9333 72.8023 54.56C72.2157 54.1733 71.489 53.98 70.6223 53.98C69.8357 53.98 69.1223 54.18 68.4823 54.58C67.8557 54.98 67.3557 55.58 66.9823 56.38C66.609 57.1667 66.4223 58.14 66.4223 59.3C66.4223 60.42 66.6023 61.38 66.9623 62.18C67.3223 62.98 67.8223 63.5933 68.4623 64.02C69.1157 64.4467 69.8557 64.66 70.6823 64.66C71.549 64.66 72.2757 64.4733 72.8623 64.1C73.4623 63.7267 73.9157 63.2333 74.2223 62.62L75.8623 63.22C75.3823 64.2067 74.6757 64.96 73.7423 65.48C72.809 65.9867 71.749 66.24 70.5623 66.24ZM78.3473 66V52.64H81.9873C83.054 52.64 84.0273 52.7533 84.9073 52.98C85.8007 53.1933 86.574 53.5533 87.2273 54.06C87.8807 54.5667 88.3873 55.2533 88.7473 56.12C89.1073 56.9733 89.2873 58.0333 89.2873 59.3C89.2873 60.58 89.1073 61.6533 88.7473 62.52C88.3873 63.3733 87.8807 64.06 87.2273 64.58C86.574 65.0867 85.8007 65.4533 84.9073 65.68C84.0273 65.8933 83.054 66 81.9873 66H78.3473ZM80.2273 64.42H81.9473C82.6407 64.42 83.3073 64.3667 83.9473 64.26C84.6007 64.14 85.1807 63.9133 85.6873 63.58C86.2073 63.2333 86.614 62.72 86.9073 62.04C87.214 61.3467 87.3673 60.4333 87.3673 59.3C87.3673 58.1667 87.214 57.2667 86.9073 56.6C86.614 55.92 86.2073 55.4133 85.6873 55.08C85.1807 54.7333 84.6007 54.5067 83.9473 54.4C83.3073 54.28 82.6407 54.22 81.9473 54.22H80.2273V64.42ZM101.07 66.24C100.497 66.24 99.9298 66.1533 99.3698 65.98C98.8232 65.7933 98.3298 65.52 97.8898 65.16C97.4632 64.7867 97.1365 64.32 96.9098 63.76L98.5298 63.16C98.6765 63.7467 98.9965 64.1733 99.4898 64.44C99.9965 64.6933 100.523 64.82 101.07 64.82C101.47 64.82 101.843 64.76 102.19 64.64C102.55 64.52 102.843 64.3467 103.07 64.12C103.297 63.8933 103.41 63.6333 103.41 63.34C103.41 62.7933 103.19 62.4067 102.75 62.18C102.323 61.9533 101.81 61.78 101.21 61.66L99.8298 61.38C99.3498 61.2733 98.9032 61.1267 98.4898 60.94C98.0765 60.74 97.7432 60.46 97.4898 60.1C97.2365 59.74 97.1098 59.26 97.1098 58.66C97.1098 58.06 97.2965 57.56 97.6698 57.16C98.0432 56.7467 98.5165 56.4333 99.0898 56.22C99.6765 56.0067 100.29 55.9 100.93 55.9C101.717 55.9 102.457 56.0667 103.15 56.4C103.857 56.72 104.357 57.2267 104.65 57.92L103.07 58.5C102.897 58.1 102.59 57.8067 102.15 57.62C101.723 57.42 101.277 57.32 100.81 57.32C100.303 57.32 99.8432 57.4333 99.4298 57.66C99.0165 57.8867 98.8098 58.2133 98.8098 58.64C98.8098 59.0667 98.9832 59.38 99.3298 59.58C99.6898 59.7667 100.13 59.9133 100.65 60.02L101.95 60.28C102.483 60.3867 102.99 60.54 103.47 60.74C103.95 60.94 104.343 61.24 104.65 61.64C104.957 62.0267 105.11 62.5733 105.11 63.28C105.11 63.9067 104.917 64.44 104.53 64.88C104.143 65.32 103.643 65.66 103.03 65.9C102.417 66.1267 101.763 66.24 101.07 66.24ZM109.024 54.2C108.691 54.2 108.397 54.08 108.144 53.84C107.904 53.5867 107.784 53.2867 107.784 52.94C107.784 52.5933 107.904 52.3 108.144 52.06C108.397 51.82 108.691 51.7 109.024 51.7C109.371 51.7 109.664 51.82 109.904 52.06C110.157 52.3 110.284 52.5933 110.284 52.94C110.284 53.2867 110.157 53.5867 109.904 53.84C109.664 54.08 109.371 54.2 109.024 54.2ZM108.184 66V57.42H106.804V56.08H109.864V66H108.184ZM113.07 66V56.08H114.31L114.75 57.58C115.03 57.1133 115.41 56.72 115.89 56.4C116.384 56.08 116.997 55.92 117.73 55.92C118.49 55.92 119.104 56.0733 119.57 56.38C120.037 56.6867 120.377 57.1133 120.59 57.66C120.99 57.0467 121.47 56.6067 122.03 56.34C122.604 56.06 123.237 55.92 123.93 55.92C125.077 55.92 125.897 56.2733 126.39 56.98C126.884 57.6733 127.13 58.5867 127.13 59.72V66H125.45V60.22C125.45 59.7133 125.397 59.2467 125.29 58.82C125.197 58.38 124.997 58.0267 124.69 57.76C124.397 57.4933 123.944 57.36 123.33 57.36C122.61 57.36 122.03 57.64 121.59 58.2C121.164 58.7467 120.95 59.5533 120.95 60.62V66H119.27V60.22C119.27 59.7133 119.217 59.2467 119.11 58.82C119.017 58.38 118.817 58.0267 118.51 57.76C118.217 57.4933 117.764 57.36 117.15 57.36C116.43 57.36 115.85 57.64 115.41 58.2C114.97 58.7467 114.75 59.5533 114.75 60.62V66H113.07ZM130.087 69.22V56.08H131.307L131.767 57.64C132.073 57.12 132.493 56.7067 133.027 56.4C133.56 56.08 134.213 55.92 134.987 55.92C135.747 55.92 136.447 56.1267 137.087 56.54C137.74 56.94 138.26 57.5267 138.647 58.3C139.047 59.06 139.247 59.9867 139.247 61.08C139.247 62.16 139.047 63.0867 138.647 63.86C138.26 64.6333 137.74 65.2267 137.087 65.64C136.447 66.04 135.747 66.24 134.987 66.24C134.213 66.24 133.56 66.0867 133.027 65.78C132.493 65.46 132.073 65.0333 131.767 64.5V69.22H130.087ZM134.547 64.8C135.4 64.8 136.08 64.4733 136.587 63.82C137.107 63.1667 137.367 62.2533 137.367 61.08C137.367 59.8933 137.107 58.98 136.587 58.34C136.08 57.6867 135.4 57.36 134.547 57.36C133.693 57.36 133.007 57.6867 132.487 58.34C131.98 58.98 131.727 59.8933 131.727 61.08C131.727 62.2533 131.98 63.1667 132.487 63.82C133.007 64.4733 133.693 64.8 134.547 64.8ZM143.955 66C143.328 66 142.842 65.94 142.495 65.82C142.162 65.6867 141.928 65.44 141.795 65.08C141.675 64.72 141.615 64.2 141.615 63.52V52.66H143.295V63.24C143.295 63.7467 143.348 64.0867 143.455 64.26C143.562 64.4333 143.848 64.52 144.315 64.52H144.695V66H143.955ZM147.949 54.2C147.616 54.2 147.322 54.08 147.069 53.84C146.829 53.5867 146.709 53.2867 146.709 52.94C146.709 52.5933 146.829 52.3 147.069 52.06C147.322 51.82 147.616 51.7 147.949 51.7C148.296 51.7 148.589 51.82 148.829 52.06C149.082 52.3 149.209 52.5933 149.209 52.94C149.209 53.2867 149.082 53.5867 148.829 53.84C148.589 54.08 148.296 54.2 147.949 54.2ZM147.109 66V57.42H145.729V56.08H148.789V66H147.109ZM152.575 66V57.42H150.895V56.08H152.575V54.6C152.575 53.92 152.642 53.38 152.775 52.98C152.909 52.58 153.169 52.3 153.555 52.14C153.942 51.9667 154.502 51.88 155.235 51.88H156.315V53.3H155.275C154.849 53.3 154.569 53.3867 154.435 53.56C154.315 53.7333 154.255 54.0733 154.255 54.58V56.08H156.315V57.42H154.255V66H152.575ZM160.126 54.2C159.793 54.2 159.5 54.08 159.246 53.84C159.006 53.5867 158.886 53.2867 158.886 52.94C158.886 52.5933 159.006 52.3 159.246 52.06C159.5 51.82 159.793 51.7 160.126 51.7C160.473 51.7 160.766 51.82 161.006 52.06C161.26 52.3 161.386 52.5933 161.386 52.94C161.386 53.2867 161.26 53.5867 161.006 53.84C160.766 54.08 160.473 54.2 160.126 54.2ZM159.286 66V57.42H157.906V56.08H160.966V66H159.286ZM168.393 66.24C167.353 66.24 166.473 66.0133 165.753 65.56C165.033 65.0933 164.479 64.4733 164.093 63.7C163.719 62.9133 163.533 62.0333 163.533 61.06C163.533 60.0067 163.746 59.1 164.173 58.34C164.599 57.5667 165.173 56.9733 165.893 56.56C166.626 56.1333 167.446 55.92 168.353 55.92C169.139 55.92 169.833 56.08 170.433 56.4C171.033 56.7067 171.526 57.1267 171.913 57.66C172.313 58.18 172.599 58.7733 172.773 59.44C172.959 60.1067 173.026 60.7933 172.973 61.5H165.333C165.359 62.3267 165.539 62.98 165.873 63.46C166.219 63.94 166.626 64.28 167.093 64.48C167.559 64.6667 167.993 64.76 168.393 64.76C168.953 64.76 169.419 64.6733 169.793 64.5C170.179 64.3133 170.486 64.0733 170.713 63.78L172.333 64.26C171.973 64.8333 171.459 65.3067 170.793 65.68C170.126 66.0533 169.326 66.24 168.393 66.24ZM165.353 60.16H171.193C171.193 59.6933 171.073 59.2467 170.833 58.82C170.606 58.3933 170.279 58.0467 169.853 57.78C169.439 57.5 168.939 57.36 168.353 57.36C167.859 57.36 167.393 57.4533 166.953 57.64C166.513 57.8267 166.146 58.1267 165.853 58.54C165.573 58.9533 165.406 59.4933 165.353 60.16ZM178.774 66.24C178.027 66.24 177.327 66.04 176.674 65.64C176.021 65.2267 175.494 64.64 175.094 63.88C174.707 63.1067 174.514 62.1733 174.514 61.08C174.514 59.9867 174.707 59.06 175.094 58.3C175.494 57.5267 176.021 56.94 176.674 56.54C177.327 56.1267 178.027 55.92 178.774 55.92C179.561 55.92 180.221 56.08 180.754 56.4C181.287 56.7067 181.701 57.12 181.994 57.64V52.64H183.674V62.26C183.674 62.5933 183.687 63.0867 183.714 63.74C183.741 64.38 183.841 65.1333 184.014 66H182.434L181.994 64.5C181.701 65.0333 181.287 65.46 180.754 65.78C180.221 66.0867 179.561 66.24 178.774 66.24ZM179.214 64.8C180.067 64.8 180.747 64.4733 181.254 63.82C181.774 63.1667 182.034 62.2533 182.034 61.08C182.034 59.8933 181.774 58.98 181.254 58.34C180.747 57.6867 180.067 57.36 179.214 57.36C178.361 57.36 177.674 57.6867 177.154 58.34C176.647 58.98 176.394 59.8933 176.394 61.08C176.394 62.2533 176.647 63.1667 177.154 63.82C177.674 64.4733 178.361 64.8 179.214 64.8Z" fill="url(#paint0_linear_2822_33239)"/>
<defs>
<linearGradient id="paint0_linear_2822_33239" x1="-13.4431" y1="97.9045" x2="166.034" y2="-87.6666" gradientUnits="userSpaceOnUse">
<stop offset="0.172572" stop-color="#FC540C"/>
<stop offset="0.699643" stop-color="#FFD76F" stop-opacity="0.72"/>
<stop offset="1" stop-color="#38D4E9"/>
</linearGradient>
</defs>
</svg>
