<svg width="276" height="99" viewBox="0 0 276 99" fill="none" xmlns="http://www.w3.org/2000/svg">
<path d="M0 79C0 90.0457 8.9543 99 20 99H256C267.046 99 276 90.0457 276 79V40C276 28.9543 267.046 20 256 20H185.003C183.396 20 181.945 19.0384 181.319 17.5584L175.733 4.35428C175.044 2.72654 172.738 2.72653 172.049 4.35427L166.463 17.5584C165.837 19.0384 164.386 20 162.779 20H20C8.95429 20 0 28.9543 0 40V79Z" fill="white" fill-opacity="0.05"/>
<path d="M0.5 79C0.5 89.7696 9.23045 98.5 20 98.5H256C266.77 98.5 275.5 89.7696 275.5 79V40C275.5 29.2304 266.77 20.5 256 20.5H185.003C183.195 20.5 181.563 19.4182 180.858 17.7532L175.273 4.54908C174.756 3.32828 173.026 3.32826 172.51 4.54907L166.924 17.7532C166.22 19.4182 164.587 20.5 162.779 20.5H20C9.23043 20.5 0.5 29.2304 0.5 40V79Z" stroke="white" stroke-opacity="0.1"/>
<path d="M43.1158 66.24C41.8358 66.24 40.7424 65.9467 39.8358 65.36C38.9424 64.76 38.2558 63.94 37.7758 62.9C37.3091 61.86 37.0758 60.66 37.0758 59.3C37.0758 57.9133 37.3291 56.7067 37.8358 55.68C38.3558 54.64 39.0824 53.8333 40.0158 53.26C40.9491 52.6867 42.0424 52.4 43.2958 52.4C44.4158 52.4 45.4224 52.66 46.3158 53.18C47.2225 53.7 47.9091 54.4467 48.3758 55.42L46.7158 56.02C46.4225 55.42 45.9758 54.9333 45.3758 54.56C44.7891 54.1733 44.0624 53.98 43.1958 53.98C42.4091 53.98 41.6958 54.18 41.0558 54.58C40.4291 54.98 39.9291 55.58 39.5558 56.38C39.1824 57.1667 38.9958 58.14 38.9958 59.3C38.9958 60.42 39.1691 61.38 39.5158 62.18C39.8758 62.98 40.3691 63.5933 40.9958 64.02C41.6358 64.4467 42.3691 64.66 43.1958 64.66C43.6358 64.66 44.0891 64.6067 44.5558 64.5C45.0224 64.3933 45.4491 64.2133 45.8358 63.96C46.2224 63.6933 46.5358 63.3333 46.7758 62.88C47.0158 62.4267 47.1358 61.8533 47.1358 61.16V60.72H43.2358V59.1H48.9158V66H47.8358L47.3358 64.32C46.9091 65 46.3224 65.4933 45.5758 65.8C44.8424 66.0933 44.0224 66.24 43.1158 66.24ZM56.095 66.24C55.055 66.24 54.175 66.0133 53.455 65.56C52.735 65.0933 52.1817 64.4733 51.795 63.7C51.4217 62.9133 51.235 62.0333 51.235 61.06C51.235 60.0067 51.4483 59.1 51.875 58.34C52.3017 57.5667 52.875 56.9733 53.595 56.56C54.3283 56.1333 55.1483 55.92 56.055 55.92C56.8417 55.92 57.535 56.08 58.135 56.4C58.735 56.7067 59.2283 57.1267 59.615 57.66C60.015 58.18 60.3017 58.7733 60.475 59.44C60.6617 60.1067 60.7283 60.7933 60.675 61.5H53.035C53.0617 62.3267 53.2417 62.98 53.575 63.46C53.9217 63.94 54.3283 64.28 54.795 64.48C55.2617 64.6667 55.695 64.76 56.095 64.76C56.655 64.76 57.1217 64.6733 57.495 64.5C57.8817 64.3133 58.1883 64.0733 58.415 63.78L60.035 64.26C59.675 64.8333 59.1617 65.3067 58.495 65.68C57.8283 66.0533 57.0283 66.24 56.095 66.24ZM53.055 60.16H58.895C58.895 59.6933 58.775 59.2467 58.535 58.82C58.3083 58.3933 57.9817 58.0467 57.555 57.78C57.1417 57.5 56.6417 57.36 56.055 57.36C55.5617 57.36 55.095 57.4533 54.655 57.64C54.215 57.8267 53.8483 58.1267 53.555 58.54C53.275 58.9533 53.1083 59.4933 53.055 60.16ZM65.8763 66C65.2496 66 64.7629 65.94 64.4163 65.82C64.0829 65.6867 63.8496 65.44 63.7163 65.08C63.5963 64.72 63.5363 64.2 63.5363 63.52V57.42H61.8563V56.08H63.5363V53.58H65.2163V56.08H67.1363V57.42H65.2163V63.24C65.2163 63.7467 65.2629 64.0867 65.3563 64.26C65.4629 64.4333 65.7563 64.52 66.2363 64.52H67.1363V66H65.8763ZM79.8661 66.24C79.1328 66.24 78.4194 66.1267 77.7261 65.9C77.0328 65.6733 76.4194 65.3267 75.8861 64.86C75.3661 64.3933 74.9861 63.8 74.7461 63.08L76.4861 62.56C76.6461 63.04 76.9061 63.44 77.2661 63.76C77.6261 64.0667 78.0394 64.2933 78.5061 64.44C78.9861 64.5867 79.4661 64.66 79.9461 64.66C80.4794 64.66 80.9861 64.5733 81.4661 64.4C81.9461 64.2267 82.3328 63.9667 82.6261 63.62C82.9328 63.26 83.0861 62.8133 83.0861 62.28C83.0861 61.7333 82.8861 61.3 82.4861 60.98C82.0861 60.66 81.3928 60.3733 80.4061 60.12L78.7061 59.74C78.0928 59.58 77.4861 59.3667 76.8861 59.1C76.2994 58.8333 75.8128 58.4533 75.4261 57.96C75.0528 57.4667 74.8661 56.8067 74.8661 55.98C74.8661 55.22 75.0994 54.5733 75.5661 54.04C76.0461 53.5067 76.6594 53.1 77.4061 52.82C78.1661 52.54 78.9528 52.4 79.7661 52.4C80.3928 52.4 81.0061 52.4933 81.6061 52.68C82.2194 52.8533 82.7661 53.1267 83.2461 53.5C83.7394 53.86 84.1261 54.3267 84.4061 54.9L82.6861 55.4C82.4328 54.9333 82.0194 54.58 81.4461 54.34C80.8861 54.1 80.2994 53.98 79.6861 53.98C79.2061 53.98 78.7461 54.06 78.3061 54.22C77.8661 54.3667 77.5061 54.5933 77.2261 54.9C76.9461 55.2067 76.8061 55.5933 76.8061 56.06C76.8061 56.5 76.9328 56.8533 77.1861 57.12C77.4528 57.3867 77.7994 57.6 78.2261 57.76C78.6661 57.9067 79.1461 58.04 79.6661 58.16L81.1261 58.48C81.8061 58.64 82.4461 58.86 83.0461 59.14C83.6461 59.42 84.1328 59.8133 84.5061 60.32C84.8794 60.8267 85.0661 61.5067 85.0661 62.36C85.0661 62.9733 84.9194 63.5267 84.6261 64.02C84.3328 64.5 83.9394 64.9067 83.4461 65.24C82.9528 65.56 82.3928 65.8067 81.7661 65.98C81.1528 66.1533 80.5194 66.24 79.8661 66.24ZM90.4802 66C89.8535 66 89.3668 65.94 89.0202 65.82C88.6868 65.6867 88.4535 65.44 88.3202 65.08C88.2002 64.72 88.1402 64.2 88.1402 63.52V57.42H86.4602V56.08H88.1402V53.58H89.8202V56.08H91.7402V57.42H89.8202V63.24C89.8202 63.7467 89.8668 64.0867 89.9602 64.26C90.0668 64.4333 90.3602 64.52 90.8402 64.52H91.7402V66H90.4802ZM96.9245 66.24C96.2979 66.24 95.7245 66.1267 95.2045 65.9C94.6845 65.6733 94.2712 65.3467 93.9645 64.92C93.6579 64.4933 93.5045 63.98 93.5045 63.38C93.5045 62.5933 93.7779 61.9733 94.3245 61.52C94.8845 61.0667 95.6645 60.72 96.6645 60.48C97.6779 60.2267 98.8579 60.0267 100.205 59.88C100.231 59.04 100.065 58.3933 99.7045 57.94C99.3445 57.4867 98.7645 57.26 97.9645 57.26C97.3645 57.26 96.8712 57.4 96.4845 57.68C96.1112 57.9467 95.8712 58.32 95.7645 58.8L94.1445 58.32C94.4112 57.56 94.8845 56.9733 95.5645 56.56C96.2579 56.1333 97.0512 55.92 97.9445 55.92C99.3179 55.92 100.318 56.2467 100.945 56.9C101.585 57.54 101.905 58.5533 101.905 59.94V62.26C101.905 63.0867 101.938 63.8 102.005 64.4C102.071 65 102.151 65.5333 102.245 66H100.705L100.305 64.64C100.011 65.1333 99.5912 65.5267 99.0445 65.82C98.4979 66.1 97.7912 66.24 96.9245 66.24ZM97.2845 64.9C97.8045 64.9 98.2979 64.8067 98.7645 64.62C99.2312 64.4333 99.6112 64.12 99.9045 63.68C100.198 63.2267 100.345 62.6133 100.345 61.84V61.22C99.3312 61.3267 98.4512 61.46 97.7045 61.62C96.9579 61.7667 96.3779 61.98 95.9645 62.26C95.5645 62.5267 95.3645 62.8867 95.3645 63.34C95.3645 63.8067 95.5312 64.1867 95.8645 64.48C96.2112 64.76 96.6845 64.9 97.2845 64.9ZM104.872 66V56.08H106.092L106.632 57.92C106.979 57.32 107.445 56.84 108.032 56.48C108.632 56.1067 109.345 55.92 110.172 55.92V57.66C110.079 57.66 109.979 57.66 109.872 57.66C109.779 57.66 109.685 57.6667 109.592 57.68C108.459 57.7733 107.665 58.1667 107.212 58.86C106.772 59.5533 106.552 60.5133 106.552 61.74V66H104.872ZM115.201 66C114.575 66 114.088 65.94 113.741 65.82C113.408 65.6867 113.175 65.44 113.041 65.08C112.921 64.72 112.861 64.2 112.861 63.52V57.42H111.181V56.08H112.861V53.58H114.541V56.08H116.461V57.42H114.541V63.24C114.541 63.7467 114.588 64.0867 114.681 64.26C114.788 64.4333 115.081 64.52 115.561 64.52H116.461V66H115.201ZM123.086 66.24C122.046 66.24 121.166 66.0133 120.446 65.56C119.726 65.0933 119.172 64.4733 118.786 63.7C118.412 62.9133 118.226 62.0333 118.226 61.06C118.226 60.0067 118.439 59.1 118.866 58.34C119.292 57.5667 119.866 56.9733 120.586 56.56C121.319 56.1333 122.139 55.92 123.046 55.92C123.832 55.92 124.526 56.08 125.126 56.4C125.726 56.7067 126.219 57.1267 126.606 57.66C127.006 58.18 127.292 58.7733 127.466 59.44C127.652 60.1067 127.719 60.7933 127.666 61.5H120.026C120.052 62.3267 120.232 62.98 120.566 63.46C120.912 63.94 121.319 64.28 121.786 64.48C122.252 64.6667 122.686 64.76 123.086 64.76C123.646 64.76 124.112 64.6733 124.486 64.5C124.872 64.3133 125.179 64.0733 125.406 63.78L127.026 64.26C126.666 64.8333 126.152 65.3067 125.486 65.68C124.819 66.0533 124.019 66.24 123.086 66.24ZM120.046 60.16H125.886C125.886 59.6933 125.766 59.2467 125.526 58.82C125.299 58.3933 124.972 58.0467 124.546 57.78C124.132 57.5 123.632 57.36 123.046 57.36C122.552 57.36 122.086 57.4533 121.646 57.64C121.206 57.8267 120.839 58.1267 120.546 58.54C120.266 58.9533 120.099 59.4933 120.046 60.16ZM133.467 66.24C132.72 66.24 132.02 66.04 131.367 65.64C130.714 65.2267 130.187 64.64 129.787 63.88C129.4 63.1067 129.207 62.1733 129.207 61.08C129.207 59.9867 129.4 59.06 129.787 58.3C130.187 57.5267 130.714 56.94 131.367 56.54C132.02 56.1267 132.72 55.92 133.467 55.92C134.254 55.92 134.914 56.08 135.447 56.4C135.98 56.7067 136.394 57.12 136.687 57.64V52.64H138.367V62.26C138.367 62.5933 138.38 63.0867 138.407 63.74C138.434 64.38 138.534 65.1333 138.707 66H137.127L136.687 64.5C136.394 65.0333 135.98 65.46 135.447 65.78C134.914 66.0867 134.254 66.24 133.467 66.24ZM133.907 64.8C134.76 64.8 135.44 64.4733 135.947 63.82C136.467 63.1667 136.727 62.2533 136.727 61.08C136.727 59.8933 136.467 58.98 135.947 58.34C135.44 57.6867 134.76 57.36 133.907 57.36C133.054 57.36 132.367 57.6867 131.847 58.34C131.34 58.98 131.087 59.8933 131.087 61.08C131.087 62.2533 131.34 63.1667 131.847 63.82C132.367 64.4733 133.054 64.8 133.907 64.8ZM148.861 54.2C148.528 54.2 148.235 54.08 147.981 53.84C147.741 53.5867 147.621 53.2867 147.621 52.94C147.621 52.5933 147.741 52.3 147.981 52.06C148.235 51.82 148.528 51.7 148.861 51.7C149.208 51.7 149.501 51.82 149.741 52.06C149.995 52.3 150.121 52.5933 150.121 52.94C150.121 53.2867 149.995 53.5867 149.741 53.84C149.501 54.08 149.208 54.2 148.861 54.2ZM148.021 66V57.42H146.641V56.08H149.701V66H148.021ZM152.908 66V56.08H154.148L154.588 57.58C154.868 57.1133 155.261 56.72 155.768 56.4C156.274 56.08 156.948 55.92 157.788 55.92C158.988 55.92 159.834 56.2733 160.328 56.98C160.821 57.6733 161.068 58.5867 161.068 59.72V66H159.388V60.22C159.388 59.7133 159.341 59.2467 159.248 58.82C159.154 58.38 158.948 58.0267 158.628 57.76C158.321 57.4933 157.848 57.36 157.208 57.36C156.394 57.36 155.754 57.64 155.288 58.2C154.821 58.7467 154.588 59.5533 154.588 60.62V66H152.908ZM169.951 66V52.64H173.071L176.631 63.56L180.191 52.64H183.311V66H181.431V54.6L177.571 66H175.711L171.831 54.6V66H169.951ZM188.158 54.2C187.824 54.2 187.531 54.08 187.278 53.84C187.038 53.5867 186.918 53.2867 186.918 52.94C186.918 52.5933 187.038 52.3 187.278 52.06C187.531 51.82 187.824 51.7 188.158 51.7C188.504 51.7 188.798 51.82 189.038 52.06C189.291 52.3 189.418 52.5933 189.418 52.94C189.418 53.2867 189.291 53.5867 189.038 53.84C188.798 54.08 188.504 54.2 188.158 54.2ZM187.318 66V57.42H185.938V56.08H188.998V66H187.318ZM192.204 66V56.08H193.444L193.884 57.58C194.164 57.1133 194.557 56.72 195.064 56.4C195.571 56.08 196.244 55.92 197.084 55.92C198.284 55.92 199.131 56.2733 199.624 56.98C200.117 57.6733 200.364 58.5867 200.364 59.72V66H198.684V60.22C198.684 59.7133 198.637 59.2467 198.544 58.82C198.451 58.38 198.244 58.0267 197.924 57.76C197.617 57.4933 197.144 57.36 196.504 57.36C195.691 57.36 195.051 57.64 194.584 58.2C194.117 58.7467 193.884 59.5533 193.884 60.62V66H192.204ZM206.462 66.24C205.689 66.24 205.069 66.08 204.602 65.76C204.135 65.4267 203.795 64.9733 203.582 64.4C203.382 63.8133 203.282 63.1467 203.282 62.4V56.06H204.962V62C204.962 62.7333 205.049 63.3 205.222 63.7C205.395 64.1 205.635 64.38 205.942 64.54C206.262 64.6867 206.629 64.76 207.042 64.76C207.829 64.76 208.442 64.4867 208.882 63.94C209.335 63.38 209.562 62.5733 209.562 61.52V56.06H211.242V66H209.982L209.562 64.56C209.282 65.04 208.902 65.44 208.422 65.76C207.942 66.08 207.289 66.24 206.462 66.24ZM217.265 66C216.638 66 216.151 65.94 215.805 65.82C215.471 65.6867 215.238 65.44 215.105 65.08C214.985 64.72 214.925 64.2 214.925 63.52V57.42H213.245V56.08H214.925V53.58H216.605V56.08H218.525V57.42H216.605V63.24C216.605 63.7467 216.651 64.0867 216.745 64.26C216.851 64.4333 217.145 64.52 217.625 64.52H218.525V66H217.265ZM225.149 66.24C224.109 66.24 223.229 66.0133 222.509 65.56C221.789 65.0933 221.236 64.4733 220.849 63.7C220.476 62.9133 220.289 62.0333 220.289 61.06C220.289 60.0067 220.502 59.1 220.929 58.34C221.356 57.5667 221.929 56.9733 222.649 56.56C223.382 56.1333 224.202 55.92 225.109 55.92C225.896 55.92 226.589 56.08 227.189 56.4C227.789 56.7067 228.282 57.1267 228.669 57.66C229.069 58.18 229.356 58.7733 229.529 59.44C229.716 60.1067 229.782 60.7933 229.729 61.5H222.089C222.116 62.3267 222.296 62.98 222.629 63.46C222.976 63.94 223.382 64.28 223.849 64.48C224.316 64.6667 224.749 64.76 225.149 64.76C225.709 64.76 226.176 64.6733 226.549 64.5C226.936 64.3133 227.242 64.0733 227.469 63.78L229.089 64.26C228.729 64.8333 228.216 65.3067 227.549 65.68C226.882 66.0533 226.082 66.24 225.149 66.24ZM222.109 60.16H227.949C227.949 59.6933 227.829 59.2467 227.589 58.82C227.362 58.3933 227.036 58.0467 226.609 57.78C226.196 57.5 225.696 57.36 225.109 57.36C224.616 57.36 224.149 57.4533 223.709 57.64C223.269 57.8267 222.902 58.1267 222.609 58.54C222.329 58.9533 222.162 59.4933 222.109 60.16ZM235.29 66.24C234.717 66.24 234.15 66.1533 233.59 65.98C233.043 65.7933 232.55 65.52 232.11 65.16C231.683 64.7867 231.357 64.32 231.13 63.76L232.75 63.16C232.897 63.7467 233.217 64.1733 233.71 64.44C234.217 64.6933 234.743 64.82 235.29 64.82C235.69 64.82 236.063 64.76 236.41 64.64C236.77 64.52 237.063 64.3467 237.29 64.12C237.517 63.8933 237.63 63.6333 237.63 63.34C237.63 62.7933 237.41 62.4067 236.97 62.18C236.543 61.9533 236.03 61.78 235.43 61.66L234.05 61.38C233.57 61.2733 233.123 61.1267 232.71 60.94C232.297 60.74 231.963 60.46 231.71 60.1C231.457 59.74 231.33 59.26 231.33 58.66C231.33 58.06 231.517 57.56 231.89 57.16C232.263 56.7467 232.737 56.4333 233.31 56.22C233.897 56.0067 234.51 55.9 235.15 55.9C235.937 55.9 236.677 56.0667 237.37 56.4C238.077 56.72 238.577 57.2267 238.87 57.92L237.29 58.5C237.117 58.1 236.81 57.8067 236.37 57.62C235.943 57.42 235.497 57.32 235.03 57.32C234.523 57.32 234.063 57.4333 233.65 57.66C233.237 57.8867 233.03 58.2133 233.03 58.64C233.03 59.0667 233.203 59.38 233.55 59.58C233.91 59.7667 234.35 59.9133 234.87 60.02L236.17 60.28C236.703 60.3867 237.21 60.54 237.69 60.74C238.17 60.94 238.563 61.24 238.87 61.64C239.177 62.0267 239.33 62.5733 239.33 63.28C239.33 63.9067 239.137 64.44 238.75 64.88C238.363 65.32 237.863 65.66 237.25 65.9C236.637 66.1267 235.983 66.24 235.29 66.24Z" fill="url(#paint0_linear_2822_33248)"/>
<defs>
<linearGradient id="paint0_linear_2822_33248" x1="-16.942" y1="97.9045" x2="156.521" y2="-128.13" gradientUnits="userSpaceOnUse">
<stop stop-color="#FC540C"/>
<stop offset="0.162531" stop-color="#FFD76F" stop-opacity="0.72"/>
<stop offset="1" stop-color="#38D4E9"/>
</linearGradient>
</defs>
</svg>
