<svg width="286" height="99" viewBox="0 0 286 99" fill="none" xmlns="http://www.w3.org/2000/svg">
<path d="M286 20C286 8.9543 277.046 0 266 0H20C8.95432 0 0 8.95431 0 20V59C0 70.0457 8.95432 79 20 79H50.9974C52.6043 79 54.0552 79.9616 54.6813 81.4416L60.267 94.6457C60.9555 96.2735 63.2623 96.2735 63.9509 94.6457L69.5366 81.4416C70.1626 79.9616 71.6136 79 73.2205 79H266C277.046 79 286 70.0457 286 59V20Z" fill="white" fill-opacity="0.05"/>
<path d="M285.5 20C285.5 9.23044 276.77 0.5 266 0.5H20C9.23047 0.5 0.5 9.23045 0.5 20V59C0.5 69.7696 9.23047 78.5 20 78.5H50.9974C52.8052 78.5 54.4375 79.5818 55.1418 81.2468L60.7274 94.4509C61.2439 95.6717 62.974 95.6717 63.4904 94.4509L69.0761 81.2468C69.7804 79.5818 71.4127 78.5 73.2205 78.5H266C276.77 78.5 285.5 69.7696 285.5 59V20Z" stroke="white" stroke-opacity="0.1"/>
<path d="M43.7481 46V32.64H46.5281L52.6081 44V32.64H54.4881V46H51.7281L45.6281 34.58V46H43.7481ZM61.7372 46.24C61.1639 46.24 60.5972 46.14 60.0372 45.94C59.4772 45.74 58.9639 45.4333 58.4972 45.02C58.0439 44.5933 57.6772 44.0533 57.3972 43.4C57.1172 42.7467 56.9772 41.9733 56.9772 41.08C56.9772 40.1867 57.1172 39.4133 57.3972 38.76C57.6772 38.1067 58.0439 37.5733 58.4972 37.16C58.9639 36.7333 59.4772 36.42 60.0372 36.22C60.5972 36.02 61.1639 35.92 61.7372 35.92C62.3105 35.92 62.8772 36.02 63.4372 36.22C64.0105 36.42 64.5239 36.7333 64.9772 37.16C65.4439 37.5733 65.8105 38.1067 66.0772 38.76C66.3572 39.4133 66.4972 40.1867 66.4972 41.08C66.4972 41.9733 66.3572 42.7467 66.0772 43.4C65.8105 44.0533 65.4439 44.5933 64.9772 45.02C64.5239 45.4333 64.0105 45.74 63.4372 45.94C62.8772 46.14 62.3105 46.24 61.7372 46.24ZM61.7372 44.76C62.2172 44.76 62.6839 44.6333 63.1372 44.38C63.5905 44.1133 63.9639 43.7133 64.2572 43.18C64.5505 42.6333 64.6972 41.9333 64.6972 41.08C64.6972 40.2267 64.5505 39.5333 64.2572 39C63.9639 38.4533 63.5905 38.0533 63.1372 37.8C62.6839 37.5333 62.2172 37.4 61.7372 37.4C61.2705 37.4 60.8039 37.5333 60.3372 37.8C59.8839 38.0533 59.5105 38.4533 59.2172 39C58.9239 39.5333 58.7772 40.2267 58.7772 41.08C58.7772 41.9333 58.9239 42.6333 59.2172 43.18C59.5105 43.7133 59.8839 44.1133 60.3372 44.38C60.8039 44.6333 61.2705 44.76 61.7372 44.76ZM80.3178 46.24C79.0511 46.24 77.9645 45.9467 77.0578 45.36C76.1511 44.76 75.4578 43.94 74.9778 42.9C74.4978 41.86 74.2578 40.66 74.2578 39.3C74.2578 37.9133 74.5111 36.7067 75.0178 35.68C75.5378 34.64 76.2645 33.8333 77.1978 33.26C78.1311 32.6867 79.2245 32.4 80.4778 32.4C81.5978 32.4 82.6045 32.66 83.4978 33.18C84.4045 33.7 85.0845 34.4467 85.5378 35.42L83.8978 36.02C83.6045 35.42 83.1578 34.9333 82.5578 34.56C81.9711 34.1733 81.2445 33.98 80.3778 33.98C79.5911 33.98 78.8778 34.18 78.2378 34.58C77.6111 34.98 77.1111 35.58 76.7378 36.38C76.3645 37.1667 76.1778 38.14 76.1778 39.3C76.1778 40.42 76.3578 41.38 76.7178 42.18C77.0778 42.98 77.5778 43.5933 78.2178 44.02C78.8711 44.4467 79.6111 44.66 80.4378 44.66C81.3045 44.66 82.0311 44.4733 82.6178 44.1C83.2178 43.7267 83.6711 43.2333 83.9778 42.62L85.6178 43.22C85.1378 44.2067 84.4311 44.96 83.4978 45.48C82.5645 45.9867 81.5045 46.24 80.3178 46.24ZM92.1028 46.24C91.5295 46.24 90.9628 46.14 90.4028 45.94C89.8428 45.74 89.3295 45.4333 88.8628 45.02C88.4095 44.5933 88.0428 44.0533 87.7628 43.4C87.4828 42.7467 87.3428 41.9733 87.3428 41.08C87.3428 40.1867 87.4828 39.4133 87.7628 38.76C88.0428 38.1067 88.4095 37.5733 88.8628 37.16C89.3295 36.7333 89.8428 36.42 90.4028 36.22C90.9628 36.02 91.5295 35.92 92.1028 35.92C92.6761 35.92 93.2428 36.02 93.8028 36.22C94.3761 36.42 94.8895 36.7333 95.3428 37.16C95.8095 37.5733 96.1761 38.1067 96.4428 38.76C96.7228 39.4133 96.8628 40.1867 96.8628 41.08C96.8628 41.9733 96.7228 42.7467 96.4428 43.4C96.1761 44.0533 95.8095 44.5933 95.3428 45.02C94.8895 45.4333 94.3761 45.74 93.8028 45.94C93.2428 46.14 92.6761 46.24 92.1028 46.24ZM92.1028 44.76C92.5828 44.76 93.0495 44.6333 93.5028 44.38C93.9561 44.1133 94.3295 43.7133 94.6228 43.18C94.9161 42.6333 95.0628 41.9333 95.0628 41.08C95.0628 40.2267 94.9161 39.5333 94.6228 39C94.3295 38.4533 93.9561 38.0533 93.5028 37.8C93.0495 37.5333 92.5828 37.4 92.1028 37.4C91.6361 37.4 91.1695 37.5333 90.7028 37.8C90.2495 38.0533 89.8761 38.4533 89.5828 39C89.2895 39.5333 89.1428 40.2267 89.1428 41.08C89.1428 41.9333 89.2895 42.6333 89.5828 43.18C89.8761 43.7133 90.2495 44.1133 90.7028 44.38C91.1695 44.6333 91.6361 44.76 92.1028 44.76ZM99.218 46V36.08H100.458L100.898 37.58C101.178 37.1133 101.571 36.72 102.078 36.4C102.585 36.08 103.258 35.92 104.098 35.92C105.298 35.92 106.145 36.2733 106.638 36.98C107.131 37.6733 107.378 38.5867 107.378 39.72V46H105.698V40.22C105.698 39.7133 105.651 39.2467 105.558 38.82C105.465 38.38 105.258 38.0267 104.938 37.76C104.631 37.4933 104.158 37.36 103.518 37.36C102.705 37.36 102.065 37.64 101.598 38.2C101.131 38.7467 100.898 39.5533 100.898 40.62V46H99.218ZM110.916 46V37.42H109.236V36.08H110.916V34.6C110.916 33.92 110.983 33.38 111.116 32.98C111.249 32.58 111.509 32.3 111.896 32.14C112.283 31.9667 112.843 31.88 113.576 31.88H114.656V33.3H113.616C113.189 33.3 112.909 33.3867 112.776 33.56C112.656 33.7333 112.596 34.0733 112.596 34.58V36.08H114.656V37.42H112.596V46H110.916ZM118.467 34.2C118.134 34.2 117.84 34.08 117.587 33.84C117.347 33.5867 117.227 33.2867 117.227 32.94C117.227 32.5933 117.347 32.3 117.587 32.06C117.84 31.82 118.134 31.7 118.467 31.7C118.814 31.7 119.107 31.82 119.347 32.06C119.6 32.3 119.727 32.5933 119.727 32.94C119.727 33.2867 119.6 33.5867 119.347 33.84C119.107 34.08 118.814 34.2 118.467 34.2ZM117.627 46V37.42H116.247V36.08H119.307V46H117.627ZM126.593 49.84C126.06 49.84 125.527 49.76 124.993 49.6C124.473 49.4533 124.007 49.2067 123.593 48.86C123.193 48.5133 122.907 48.0667 122.733 47.52L124.413 47.06C124.6 47.58 124.907 47.9267 125.333 48.1C125.76 48.2733 126.18 48.36 126.593 48.36C127.62 48.36 128.313 48.1133 128.673 47.62C129.047 47.1267 129.233 46.4 129.233 45.44V44.12C128.927 44.64 128.52 45.0533 128.013 45.36C127.507 45.6667 126.86 45.82 126.073 45.82C125.34 45.82 124.653 45.6333 124.013 45.26C123.373 44.8733 122.853 44.3133 122.453 43.58C122.067 42.8333 121.873 41.9333 121.873 40.88C121.873 39.8133 122.067 38.9133 122.453 38.18C122.853 37.4467 123.373 36.8867 124.013 36.5C124.653 36.1133 125.34 35.92 126.073 35.92C126.86 35.92 127.507 36.08 128.013 36.4C128.52 36.7067 128.927 37.12 129.233 37.64L129.693 36.08H130.913V45.06C130.913 46.6333 130.593 47.82 129.953 48.62C129.327 49.4333 128.207 49.84 126.593 49.84ZM126.493 44.42C127 44.42 127.46 44.3 127.873 44.06C128.3 43.82 128.64 43.44 128.893 42.92C129.16 42.4 129.293 41.72 129.293 40.88C129.293 40.04 129.16 39.36 128.893 38.84C128.64 38.32 128.3 37.9467 127.873 37.72C127.46 37.48 127 37.36 126.493 37.36C125.68 37.36 125.007 37.6667 124.473 38.28C123.953 38.88 123.693 39.7467 123.693 40.88C123.693 42.0133 123.953 42.8867 124.473 43.5C125.007 44.1133 125.68 44.42 126.493 44.42ZM137.045 46.24C136.271 46.24 135.651 46.08 135.185 45.76C134.718 45.4267 134.378 44.9733 134.165 44.4C133.965 43.8133 133.865 43.1467 133.865 42.4V36.06H135.545V42C135.545 42.7333 135.631 43.3 135.805 43.7C135.978 44.1 136.218 44.38 136.525 44.54C136.845 44.6867 137.211 44.76 137.625 44.76C138.411 44.76 139.025 44.4867 139.465 43.94C139.918 43.38 140.145 42.5733 140.145 41.52V36.06H141.825V46H140.565L140.145 44.56C139.865 45.04 139.485 45.44 139.005 45.76C138.525 46.08 137.871 46.24 137.045 46.24ZM144.827 46V36.08H146.047L146.587 37.92C146.934 37.32 147.401 36.84 147.987 36.48C148.587 36.1067 149.301 35.92 150.127 35.92V37.66C150.034 37.66 149.934 37.66 149.827 37.66C149.734 37.66 149.641 37.6667 149.547 37.68C148.414 37.7733 147.621 38.1667 147.167 38.86C146.727 39.5533 146.507 40.5133 146.507 41.74V46H144.827ZM154.311 46.24C153.685 46.24 153.111 46.1267 152.591 45.9C152.071 45.6733 151.658 45.3467 151.351 44.92C151.045 44.4933 150.891 43.98 150.891 43.38C150.891 42.5933 151.165 41.9733 151.711 41.52C152.271 41.0667 153.051 40.72 154.051 40.48C155.065 40.2267 156.245 40.0267 157.591 39.88C157.618 39.04 157.451 38.3933 157.091 37.94C156.731 37.4867 156.151 37.26 155.351 37.26C154.751 37.26 154.258 37.4 153.871 37.68C153.498 37.9467 153.258 38.32 153.151 38.8L151.531 38.32C151.798 37.56 152.271 36.9733 152.951 36.56C153.645 36.1333 154.438 35.92 155.331 35.92C156.705 35.92 157.705 36.2467 158.331 36.9C158.971 37.54 159.291 38.5533 159.291 39.94V42.26C159.291 43.0867 159.325 43.8 159.391 44.4C159.458 45 159.538 45.5333 159.631 46H158.091L157.691 44.64C157.398 45.1333 156.978 45.5267 156.431 45.82C155.885 46.1 155.178 46.24 154.311 46.24ZM154.671 44.9C155.191 44.9 155.685 44.8067 156.151 44.62C156.618 44.4333 156.998 44.12 157.291 43.68C157.585 43.2267 157.731 42.6133 157.731 41.84V41.22C156.718 41.3267 155.838 41.46 155.091 41.62C154.345 41.7667 153.765 41.98 153.351 42.26C152.951 42.5267 152.751 42.8867 152.751 43.34C152.751 43.8067 152.918 44.1867 153.251 44.48C153.598 44.76 154.071 44.9 154.671 44.9ZM165.279 46C164.652 46 164.165 45.94 163.819 45.82C163.485 45.6867 163.252 45.44 163.119 45.08C162.999 44.72 162.939 44.2 162.939 43.52V37.42H161.259V36.08H162.939V33.58H164.619V36.08H166.539V37.42H164.619V43.24C164.619 43.7467 164.665 44.0867 164.759 44.26C164.865 44.4333 165.159 44.52 165.639 44.52H166.539V46H165.279ZM170.663 34.2C170.33 34.2 170.036 34.08 169.783 33.84C169.543 33.5867 169.423 33.2867 169.423 32.94C169.423 32.5933 169.543 32.3 169.783 32.06C170.036 31.82 170.33 31.7 170.663 31.7C171.01 31.7 171.303 31.82 171.543 32.06C171.796 32.3 171.923 32.5933 171.923 32.94C171.923 33.2867 171.796 33.5867 171.543 33.84C171.303 34.08 171.01 34.2 170.663 34.2ZM169.823 46V37.42H168.443V36.08H171.503V46H169.823ZM178.829 46.24C178.256 46.24 177.689 46.14 177.129 45.94C176.569 45.74 176.056 45.4333 175.589 45.02C175.136 44.5933 174.769 44.0533 174.489 43.4C174.209 42.7467 174.069 41.9733 174.069 41.08C174.069 40.1867 174.209 39.4133 174.489 38.76C174.769 38.1067 175.136 37.5733 175.589 37.16C176.056 36.7333 176.569 36.42 177.129 36.22C177.689 36.02 178.256 35.92 178.829 35.92C179.403 35.92 179.969 36.02 180.529 36.22C181.103 36.42 181.616 36.7333 182.069 37.16C182.536 37.5733 182.903 38.1067 183.169 38.76C183.449 39.4133 183.589 40.1867 183.589 41.08C183.589 41.9733 183.449 42.7467 183.169 43.4C182.903 44.0533 182.536 44.5933 182.069 45.02C181.616 45.4333 181.103 45.74 180.529 45.94C179.969 46.14 179.403 46.24 178.829 46.24ZM178.829 44.76C179.309 44.76 179.776 44.6333 180.229 44.38C180.683 44.1133 181.056 43.7133 181.349 43.18C181.643 42.6333 181.789 41.9333 181.789 41.08C181.789 40.2267 181.643 39.5333 181.349 39C181.056 38.4533 180.683 38.0533 180.229 37.8C179.776 37.5333 179.309 37.4 178.829 37.4C178.363 37.4 177.896 37.5333 177.429 37.8C176.976 38.0533 176.603 38.4533 176.309 39C176.016 39.5333 175.869 40.2267 175.869 41.08C175.869 41.9333 176.016 42.6333 176.309 43.18C176.603 43.7133 176.976 44.1133 177.429 44.38C177.896 44.6333 178.363 44.76 178.829 44.76ZM185.945 46V36.08H187.185L187.625 37.58C187.905 37.1133 188.298 36.72 188.805 36.4C189.311 36.08 189.985 35.92 190.825 35.92C192.025 35.92 192.871 36.2733 193.365 36.98C193.858 37.6733 194.105 38.5867 194.105 39.72V46H192.425V40.22C192.425 39.7133 192.378 39.2467 192.285 38.82C192.191 38.38 191.985 38.0267 191.665 37.76C191.358 37.4933 190.885 37.36 190.245 37.36C189.431 37.36 188.791 37.64 188.325 38.2C187.858 38.7467 187.625 39.5533 187.625 40.62V46H185.945ZM202.988 46V32.64H211.668V34.26H204.868V38.32H211.668V39.94H204.868V46H202.988ZM215.745 34.2C215.412 34.2 215.118 34.08 214.865 33.84C214.625 33.5867 214.505 33.2867 214.505 32.94C214.505 32.5933 214.625 32.3 214.865 32.06C215.118 31.82 215.412 31.7 215.745 31.7C216.092 31.7 216.385 31.82 216.625 32.06C216.878 32.3 217.005 32.5933 217.005 32.94C217.005 33.2867 216.878 33.5867 216.625 33.84C216.385 34.08 216.092 34.2 215.745 34.2ZM214.905 46V37.42H213.525V36.08H216.585V46H214.905ZM222.131 46C221.505 46 221.018 45.94 220.671 45.82C220.338 45.6867 220.105 45.44 219.971 45.08C219.851 44.72 219.791 44.2 219.791 43.52V32.66H221.471V43.24C221.471 43.7467 221.525 44.0867 221.631 44.26C221.738 44.4333 222.025 44.52 222.491 44.52H222.871V46H222.131ZM228.997 46.24C227.957 46.24 227.077 46.0133 226.357 45.56C225.637 45.0933 225.083 44.4733 224.697 43.7C224.323 42.9133 224.137 42.0333 224.137 41.06C224.137 40.0067 224.35 39.1 224.777 38.34C225.203 37.5667 225.777 36.9733 226.497 36.56C227.23 36.1333 228.05 35.92 228.957 35.92C229.743 35.92 230.437 36.08 231.037 36.4C231.637 36.7067 232.13 37.1267 232.517 37.66C232.917 38.18 233.203 38.7733 233.377 39.44C233.563 40.1067 233.63 40.7933 233.577 41.5H225.937C225.963 42.3267 226.143 42.98 226.477 43.46C226.823 43.94 227.23 44.28 227.697 44.48C228.163 44.6667 228.597 44.76 228.997 44.76C229.557 44.76 230.023 44.6733 230.397 44.5C230.783 44.3133 231.09 44.0733 231.317 43.78L232.937 44.26C232.577 44.8333 232.063 45.3067 231.397 45.68C230.73 46.0533 229.93 46.24 228.997 46.24ZM225.957 40.16H231.797C231.797 39.6933 231.677 39.2467 231.437 38.82C231.21 38.3933 230.883 38.0467 230.457 37.78C230.043 37.5 229.543 37.36 228.957 37.36C228.463 37.36 227.997 37.4533 227.557 37.64C227.117 37.8267 226.75 38.1267 226.457 38.54C226.177 38.9533 226.01 39.4933 225.957 40.16ZM239.138 46.24C238.564 46.24 237.998 46.1533 237.438 45.98C236.891 45.7933 236.398 45.52 235.958 45.16C235.531 44.7867 235.204 44.32 234.978 43.76L236.598 43.16C236.744 43.7467 237.064 44.1733 237.558 44.44C238.064 44.6933 238.591 44.82 239.138 44.82C239.538 44.82 239.911 44.76 240.258 44.64C240.618 44.52 240.911 44.3467 241.138 44.12C241.364 43.8933 241.478 43.6333 241.478 43.34C241.478 42.7933 241.258 42.4067 240.818 42.18C240.391 41.9533 239.878 41.78 239.278 41.66L237.898 41.38C237.418 41.2733 236.971 41.1267 236.558 40.94C236.144 40.74 235.811 40.46 235.558 40.1C235.304 39.74 235.178 39.26 235.178 38.66C235.178 38.06 235.364 37.56 235.738 37.16C236.111 36.7467 236.584 36.4333 237.158 36.22C237.744 36.0067 238.358 35.9 238.998 35.9C239.784 35.9 240.524 36.0667 241.218 36.4C241.924 36.72 242.424 37.2267 242.718 37.92L241.138 38.5C240.964 38.1 240.658 37.8067 240.218 37.62C239.791 37.42 239.344 37.32 238.878 37.32C238.371 37.32 237.911 37.4333 237.498 37.66C237.084 37.8867 236.878 38.2133 236.878 38.64C236.878 39.0667 237.051 39.38 237.398 39.58C237.758 39.7667 238.198 39.9133 238.718 40.02L240.018 40.28C240.551 40.3867 241.058 40.54 241.538 40.74C242.018 40.94 242.411 41.24 242.718 41.64C243.024 42.0267 243.178 42.5733 243.178 43.28C243.178 43.9067 242.984 44.44 242.598 44.88C242.211 45.32 241.711 45.66 241.098 45.9C240.484 46.1267 239.831 46.24 239.138 46.24Z" fill="url(#paint0_linear_2822_33245)"/>
<defs>
<linearGradient id="paint0_linear_2822_33245" x1="-181.744" y1="129.609" x2="58.9414" y2="-213.029" gradientUnits="userSpaceOnUse">
<stop stop-color="#FC540C"/>
<stop offset="0.351925" stop-color="#FFD76F" stop-opacity="0.72"/>
<stop offset="1" stop-color="#38D4E9"/>
</linearGradient>
</defs>
</svg>
