<svg width="189" height="99" viewBox="0 0 189 99" fill="none" xmlns="http://www.w3.org/2000/svg">
<path d="M0 20C0 8.9543 8.9543 0 20 0H169C180.046 0 189 8.95431 189 20V59C189 70.0457 180.046 79 169 79H138.003C136.396 79 134.945 79.9616 134.319 81.4416L128.733 94.6457C128.044 96.2735 125.738 96.2735 125.049 94.6457L119.463 81.4416C118.837 79.9616 117.386 79 115.779 79H20C8.95429 79 0 70.0457 0 59V20Z" fill="white" fill-opacity="0.05"/>
<path d="M0.5 20C0.5 9.23044 9.23045 0.5 20 0.5H169C179.77 0.5 188.5 9.23045 188.5 20V59C188.5 69.7696 179.77 78.5 169 78.5H138.003C136.195 78.5 134.563 79.5818 133.858 81.2468L128.273 94.4509C127.756 95.6717 126.026 95.6717 125.51 94.4509L119.924 81.2468C119.22 79.5818 117.587 78.5 115.779 78.5H20C9.23043 78.5 0.5 69.7696 0.5 59V20Z" stroke="white" stroke-opacity="0.1"/>
<path d="M44.9223 46V32.64H49.1623C50.2557 32.64 51.2157 32.74 52.0423 32.94C52.8823 33.1267 53.5357 33.5 54.0023 34.06C54.4823 34.6067 54.7223 35.4133 54.7223 36.48C54.7223 37.08 54.629 37.64 54.4423 38.16C54.2557 38.68 53.8957 39.12 53.3623 39.48C52.8423 39.84 52.0623 40.0933 51.0223 40.24L55.1623 46H52.8623L48.8023 40.38H46.8023V46H44.9223ZM46.8023 38.8H49.3023C49.9557 38.8 50.5423 38.7533 51.0623 38.66C51.5957 38.5667 52.0157 38.36 52.3223 38.04C52.6423 37.7067 52.8023 37.2 52.8023 36.52C52.8023 35.8267 52.6423 35.32 52.3223 35C52.0157 34.68 51.5957 34.4733 51.0623 34.38C50.5423 34.2733 49.9557 34.22 49.3023 34.22H46.8023V38.8ZM60.1345 46.24C59.3612 46.24 58.7412 46.08 58.2745 45.76C57.8079 45.4267 57.4679 44.9733 57.2545 44.4C57.0545 43.8133 56.9545 43.1467 56.9545 42.4V36.06H58.6345V42C58.6345 42.7333 58.7212 43.3 58.8945 43.7C59.0679 44.1 59.3079 44.38 59.6145 44.54C59.9345 44.6867 60.3012 44.76 60.7145 44.76C61.5012 44.76 62.1145 44.4867 62.5545 43.94C63.0079 43.38 63.2345 42.5733 63.2345 41.52V36.06H64.9145V46H63.6545L63.2345 44.56C62.9545 45.04 62.5745 45.44 62.0945 45.76C61.6145 46.08 60.9612 46.24 60.1345 46.24ZM71.2972 46.24C70.7239 46.24 70.1572 46.1533 69.5972 45.98C69.0505 45.7933 68.5572 45.52 68.1172 45.16C67.6905 44.7867 67.3639 44.32 67.1372 43.76L68.7572 43.16C68.9039 43.7467 69.2239 44.1733 69.7172 44.44C70.2239 44.6933 70.7505 44.82 71.2972 44.82C71.6972 44.82 72.0705 44.76 72.4172 44.64C72.7772 44.52 73.0705 44.3467 73.2972 44.12C73.5239 43.8933 73.6372 43.6333 73.6372 43.34C73.6372 42.7933 73.4172 42.4067 72.9772 42.18C72.5505 41.9533 72.0372 41.78 71.4372 41.66L70.0572 41.38C69.5772 41.2733 69.1305 41.1267 68.7172 40.94C68.3039 40.74 67.9705 40.46 67.7172 40.1C67.4639 39.74 67.3372 39.26 67.3372 38.66C67.3372 38.06 67.5239 37.56 67.8972 37.16C68.2705 36.7467 68.7439 36.4333 69.3172 36.22C69.9039 36.0067 70.5172 35.9 71.1572 35.9C71.9439 35.9 72.6839 36.0667 73.3772 36.4C74.0839 36.72 74.5839 37.2267 74.8772 37.92L73.2972 38.5C73.1239 38.1 72.8172 37.8067 72.3772 37.62C71.9505 37.42 71.5039 37.32 71.0372 37.32C70.5305 37.32 70.0705 37.4333 69.6572 37.66C69.2439 37.8867 69.0372 38.2133 69.0372 38.64C69.0372 39.0667 69.2105 39.38 69.5572 39.58C69.9172 39.7667 70.3572 39.9133 70.8772 40.02L72.1772 40.28C72.7105 40.3867 73.2172 40.54 73.6972 40.74C74.1772 40.94 74.5705 41.24 74.8772 41.64C75.1839 42.0267 75.3372 42.5733 75.3372 43.28C75.3372 43.9067 75.1439 44.44 74.7572 44.88C74.3705 45.32 73.8705 45.66 73.2572 45.9C72.6439 46.1267 71.9905 46.24 71.2972 46.24ZM80.5512 46C79.9246 46 79.4379 45.94 79.0912 45.82C78.7579 45.6867 78.5246 45.44 78.3912 45.08C78.2712 44.72 78.2112 44.2 78.2112 43.52V37.42H76.5312V36.08H78.2112V33.58H79.8912V36.08H81.8112V37.42H79.8912V43.24C79.8912 43.7467 79.9379 44.0867 80.0312 44.26C80.1379 44.4333 80.4312 44.52 80.9112 44.52H81.8112V46H80.5512ZM90.1411 46V32.64H92.9211L99.0011 44V32.64H100.881V46H98.1211L92.0211 34.58V46H90.1411ZM106.79 46.24C106.163 46.24 105.59 46.1267 105.07 45.9C104.55 45.6733 104.137 45.3467 103.83 44.92C103.523 44.4933 103.37 43.98 103.37 43.38C103.37 42.5933 103.643 41.9733 104.19 41.52C104.75 41.0667 105.53 40.72 106.53 40.48C107.543 40.2267 108.723 40.0267 110.07 39.88C110.097 39.04 109.93 38.3933 109.57 37.94C109.21 37.4867 108.63 37.26 107.83 37.26C107.23 37.26 106.737 37.4 106.35 37.68C105.977 37.9467 105.737 38.32 105.63 38.8L104.01 38.32C104.277 37.56 104.75 36.9733 105.43 36.56C106.123 36.1333 106.917 35.92 107.81 35.92C109.183 35.92 110.183 36.2467 110.81 36.9C111.45 37.54 111.77 38.5533 111.77 39.94V42.26C111.77 43.0867 111.803 43.8 111.87 44.4C111.937 45 112.017 45.5333 112.11 46H110.57L110.17 44.64C109.877 45.1333 109.457 45.5267 108.91 45.82C108.363 46.1 107.657 46.24 106.79 46.24ZM107.15 44.9C107.67 44.9 108.163 44.8067 108.63 44.62C109.097 44.4333 109.477 44.12 109.77 43.68C110.063 43.2267 110.21 42.6133 110.21 41.84V41.22C109.197 41.3267 108.317 41.46 107.57 41.62C106.823 41.7667 106.243 41.98 105.83 42.26C105.43 42.5267 105.23 42.8867 105.23 43.34C105.23 43.8067 105.397 44.1867 105.73 44.48C106.077 44.76 106.55 44.9 107.15 44.9ZM117.758 46C117.131 46 116.644 45.94 116.298 45.82C115.964 45.6867 115.731 45.44 115.598 45.08C115.478 44.72 115.418 44.2 115.418 43.52V37.42H113.738V36.08H115.418V33.58H117.098V36.08H119.018V37.42H117.098V43.24C117.098 43.7467 117.144 44.0867 117.238 44.26C117.344 44.4333 117.638 44.52 118.118 44.52H119.018V46H117.758ZM123.142 34.2C122.809 34.2 122.515 34.08 122.262 33.84C122.022 33.5867 121.902 33.2867 121.902 32.94C121.902 32.5933 122.022 32.3 122.262 32.06C122.515 31.82 122.809 31.7 123.142 31.7C123.489 31.7 123.782 31.82 124.022 32.06C124.275 32.3 124.402 32.5933 124.402 32.94C124.402 33.2867 124.275 33.5867 124.022 33.84C123.782 34.08 123.489 34.2 123.142 34.2ZM122.302 46V37.42H120.922V36.08H123.982V46H122.302ZM129.328 46L125.788 36.08H127.608L130.208 43.8L132.788 36.08H134.608L131.068 46H129.328ZM140.436 46.24C139.396 46.24 138.516 46.0133 137.796 45.56C137.076 45.0933 136.523 44.4733 136.136 43.7C135.763 42.9133 135.576 42.0333 135.576 41.06C135.576 40.0067 135.79 39.1 136.216 38.34C136.643 37.5667 137.216 36.9733 137.936 36.56C138.67 36.1333 139.49 35.92 140.396 35.92C141.183 35.92 141.876 36.08 142.476 36.4C143.076 36.7067 143.57 37.1267 143.956 37.66C144.356 38.18 144.643 38.7733 144.816 39.44C145.003 40.1067 145.07 40.7933 145.016 41.5H137.376C137.403 42.3267 137.583 42.98 137.916 43.46C138.263 43.94 138.67 44.28 139.136 44.48C139.603 44.6667 140.036 44.76 140.436 44.76C140.996 44.76 141.463 44.6733 141.836 44.5C142.223 44.3133 142.53 44.0733 142.756 43.78L144.376 44.26C144.016 44.8333 143.503 45.3067 142.836 45.68C142.17 46.0533 141.37 46.24 140.436 46.24ZM137.396 40.16H143.236C143.236 39.6933 143.116 39.2467 142.876 38.82C142.65 38.3933 142.323 38.0467 141.896 37.78C141.483 37.5 140.983 37.36 140.396 37.36C139.903 37.36 139.436 37.4533 138.996 37.64C138.556 37.8267 138.19 38.1267 137.896 38.54C137.616 38.9533 137.45 39.4933 137.396 40.16Z" fill="url(#paint0_linear_2822_33242)"/>
<defs>
<linearGradient id="paint0_linear_2822_33242" x1="-11.6016" y1="76.9184" x2="164.798" y2="-82.5044" gradientUnits="userSpaceOnUse">
<stop offset="0.172572" stop-color="#FC540C"/>
<stop offset="0.699643" stop-color="#FFD76F" stop-opacity="0.72"/>
<stop offset="1" stop-color="#38D4E9"/>
</linearGradient>
</defs>
</svg>
