<svg width="97" height="21" viewBox="0 0 97 21" fill="none" xmlns="http://www.w3.org/2000/svg">
<path d="M73.6678 3.56301H75.8006V17.4482H73.6678V3.56301ZM69.4214 3.56301H71.535V17.4482H69.4214V3.56301ZM85.8497 13.1407C85.8497 15.5706 83.9475 16.3122 81.9684 16.3122C80.4505 16.3122 79.5474 15.6652 79.5474 14.687C79.5474 13.2669 82.0068 12.7935 85.8497 12.4937V13.1407ZM87.7711 13.5825L87.7903 11.1841C87.8288 8.26505 86.3301 6.93964 82.8138 6.93964C80.3928 6.93964 77.9526 8.18616 77.7797 10.4109H79.9701C80.0662 9.13288 81.0653 8.35972 82.833 8.35972C84.4278 8.35972 85.6768 8.97509 85.6768 10.8685V11.121C80.5465 11.5786 77.184 12.3044 77.184 14.7343C77.184 16.6277 79.1439 17.7007 81.5073 17.7007C83.7361 17.7007 85.0235 17.1169 85.7921 16.0439C85.8113 16.5173 85.8689 16.9907 85.965 17.4482H88.0978C87.8288 16.47 87.7519 15.3023 87.7711 13.5667V13.5825ZM95.4377 7.09743C93.7852 7.14477 92.5363 7.77591 91.9022 8.94353V7.14477H89.8271V17.4482H91.9406V12.0362C91.9406 9.74825 92.9206 8.88042 94.8804 8.88042C95.2839 8.8962 95.6682 8.91198 96.0717 8.97509V7.11321C95.8604 7.09743 95.649 7.09743 95.4377 7.09743ZM53.3967 4.57284H51.2639V7.14477H49.2848V8.54907H51.2639V14.8605C51.2639 17.0064 51.8211 17.4482 54.2229 17.4482H55.7792V15.9808H54.7032C53.4927 15.9808 53.3967 15.7126 53.3967 14.6554V8.54907H55.7792V7.14477H53.3967V4.57284ZM43.1554 9.49579L41.1956 9.13288C39.6008 8.83308 38.4287 8.23349 38.4287 7.00276C38.4287 5.44067 40.7152 4.96731 42.0218 4.96731C43.7126 4.96731 45.6725 5.51956 46.2297 7.11321H48.5354C47.8629 4.44661 45.1729 3.32633 42.1371 3.32633C39.4086 3.32633 36.0269 4.44661 36.0269 7.11321C36.0269 9.41689 38.3326 10.4898 40.6576 10.9001L42.7711 11.263C44.9039 11.6732 46.4026 12.2413 46.4026 13.7245C46.4026 15.0972 44.9808 16.0597 42.4637 16.0597C39.8313 16.0597 38.2365 15.0657 37.7946 13.1407H35.4697C35.9116 15.9019 38.4287 17.7007 42.4061 17.7007C45.7686 17.7007 48.8429 16.2491 48.8429 13.5351C48.8429 10.7423 45.7301 9.93759 43.1554 9.48001V9.49579ZM58.354 11.3892C58.5461 9.30644 60.2754 8.47017 62.1392 8.47017C64.4065 8.47017 65.6746 9.92181 65.7515 11.3892H58.354ZM62.1392 6.9712C58.719 6.9712 56.0482 9.05398 56.0482 12.3202C56.0482 15.3654 58.2387 17.7007 62.1968 17.7007C65.2519 17.7007 67.2694 16.2333 67.8074 14.4661H65.6554C65.1174 15.4759 64.0798 16.1702 62.216 16.1702C60.3523 16.1702 58.4116 15.0972 58.354 12.8882H67.9996C68.2686 9.60624 66.0013 6.98698 62.1584 6.98698L62.1392 6.9712ZM28.3796 5.58268L5.97566 14.9552L4.0158 15.7599L0 17.4482V19.4679L3.99658 17.7954L7.41674 16.3595L23.9411 9.44845C24.652 13.8665 20.8668 17.9216 15.4868 18.5054C15.064 18.5527 14.6221 18.5843 14.1802 18.5843C12.5085 18.5843 10.8561 18.2214 9.3766 17.5429L9.26131 17.606L7.14774 18.4738C12.5085 21.6769 20.0213 20.6986 23.9219 16.2806C25.4014 14.6081 26.2084 12.5884 26.2084 10.5056C26.2084 10.2532 26.2084 10.0007 26.1699 9.74825C26.1123 9.02243 26.5734 8.34394 27.3612 8.01259L28.3796 7.57079V5.58268ZM24.383 3.23166L20.9629 4.65174L4.45773 11.5628C3.7468 7.14477 7.55124 3.08965 12.9313 2.50584C15.0256 2.28494 17.1584 2.61629 19.003 3.46834L20.9629 2.64785L21.2511 2.52162C15.8903 -0.681452 8.37745 0.312604 4.47694 4.71485C2.97822 6.40317 2.19044 8.42284 2.19044 10.5056C2.19044 10.7581 2.19044 11.0105 2.20965 11.263C2.28651 11.973 1.82536 12.6673 1.03757 12.9987L0 13.4247V15.4443L3.03587 14.1663L4.0158 13.756L4.99573 13.3616L22.3847 6.07182L24.3446 5.25133L28.3796 3.56301V1.54334L24.383 3.23166Z" fill="#D8D8D8"/>
</svg>
